/* XPM */
static char *_4c360e00ef8490da568f29f7864c83fbK8CE9H8lHH7xXYI[] = {
/* columns rows colors chars-per-pixel */
"60 60 217 2 ",
"   c None",
".  c #000002",
"X  c #00000B",
"o  c #0B0001",
"O  c #011309",
"+  c #081706",
"@  c #000013",
"#  c #00001B",
"$  c #000D16",
"%  c #001112",
"&  c #071A19",
"*  c #18140F",
"=  c #351702",
"-  c #2C2A00",
";  c #372A0B",
":  c #252915",
">  c #252B17",
",  c #312D14",
"<  c #27351A",
"1  c #38381E",
"2  c #3B360C",
"3  c #000023",
"4  c #00002C",
"5  c #00142C",
"6  c #091629",
"7  c #000033",
"8  c #000E34",
"9  c #00003C",
"0  c #00093D",
"q  c #011734",
"w  c #00143F",
"e  c #0E2521",
"r  c #1B2429",
"t  c #00203A",
"y  c #16203B",
"u  c #26292A",
"i  c #2D3121",
"p  c #222E3C",
"a  c #2F3230",
"s  c #3A3634",
"d  c #39383A",
"f  c #3E3927",
"g  c #4C3902",
"h  c #473701",
"j  c #533A02",
"k  c #5A3D00",
"l  c #533809",
"z  c #4E3A11",
"x  c #413C12",
"c  c #503A10",
"v  c #482F04",
"b  c #423F26",
"n  c #3C421C",
"m  c #4F4000",
"M  c #554300",
"N  c #5A4A07",
"B  c #4E471D",
"V  c #4B4617",
"C  c #514D1A",
"Z  c #5F4610",
"A  c #5D5119",
"S  c #624904",
"D  c #664A0B",
"F  c #6B5304",
"G  c #6D5209",
"H  c #695D0B",
"J  c #635606",
"K  c #745304",
"L  c #7D5C05",
"P  c #745A0C",
"I  c #7C5C0D",
"U  c #755705",
"Y  c #615714",
"T  c #60531B",
"R  c #645A19",
"E  c #695C1D",
"W  c #7B5D13",
"Q  c #634915",
"!  c #7A6B0D",
"~  c #73630B",
"^  c #6E6316",
"/  c #7C6D14",
"(  c #7A6B18",
")  c #7F7119",
"_  c #424521",
"`  c #514E29",
"'  c #545325",
"]  c #575427",
"[  c #615D2D",
"{  c #6F6425",
"}  c #746827",
"|  c #000343",
" . c #000942",
".. c #001944",
"X. c #002640",
"o. c #182C46",
"O. c #25364A",
"+. c #363D4A",
"@. c #3C4357",
"#. c #4A4948",
"$. c #524E4C",
"%. c #56534F",
"&. c #454E5F",
"*. c #555354",
"=. c #5B5756",
"-. c #825E0A",
";. c #815E04",
":. c #846704",
">. c #8B6201",
",. c #86620B",
"<. c #8C650B",
"1. c #846B0B",
"2. c #8A690B",
"3. c #916602",
"4. c #926905",
"5. c #936A0A",
"6. c #8D7906",
"7. c #847209",
"8. c #9B760A",
"9. c #836413",
"0. c #8D6C14",
"q. c #887916",
"w. c #A37B0A",
"e. c #A07E16",
"r. c #8B7D26",
"t. c #87792A",
"y. c #9A8614",
"u. c #AC8307",
"i. c #B58B0A",
"p. c #AB930E",
"a. c #BF910D",
"s. c #A98417",
"d. c #B28A17",
"f. c #A9951B",
"g. c #BA9615",
"h. c #BBA31A",
"j. c #968727",
"k. c #94852D",
"l. c #99892C",
"z. c #99872A",
"x. c #A89529",
"c. c #B09D2D",
"v. c #A39336",
"b. c #B9A528",
"n. c #CC9B0A",
"m. c #D19E0C",
"M. c #C0961E",
"N. c #C79919",
"B. c #D1B40E",
"V. c #C7AB17",
"C. c #D9A617",
"Z. c #D8A61B",
"A. c #D5A319",
"S. c #CBB118",
"D. c #DCBD1D",
"F. c #D8BA17",
"G. c #CEA40B",
"H. c #E5AD0F",
"J. c #ECB20D",
"K. c #F7B700",
"L. c #F8B700",
"P. c #F6B802",
"I. c #FAB900",
"U. c #F7BA0A",
"Y. c #FCBD0B",
"T. c #F4B709",
"R. c #E1AC19",
"E. c #EDB41E",
"W. c #E8B114",
"Q. c #FCBE15",
"!. c #F5BA19",
"~. c #C6AE2D",
"^. c #C8AD26",
"/. c #D2A222",
"(. c #CAB02B",
"). c #D2B524",
"_. c #DCBE23",
"`. c #D6BA2A",
"'. c #C2AB30",
"]. c #CCB432",
"[. c #D9BE33",
"{. c #D7BD30",
"}. c #E9B020",
"|. c #F3BD25",
" X c #DFC21F",
".X c #FFC105",
"XX c #FFC00B",
"oX c #FFD90F",
"OX c #ECCA17",
"+X c #E4C51C",
"@X c #ECCA1C",
"#X c #E6C517",
"$X c #FFC210",
"%X c #FEC21D",
"&X c #FDD615",
"*X c #FFDA15",
"=X c #F4D11D",
"-X c #FED718",
";X c #FFDC1A",
":X c #F3D017",
">X c #FFE01C",
",X c #FFE41B",
"<X c #E6C524",
"1X c #ECCB23",
"2X c #E3C42D",
"3X c #EBCB2B",
"4X c #E6C82D",
"5X c #F2CE23",
"6X c #EFD024",
"7X c #F6D323",
"8X c #FAD623",
"9X c #FFDC24",
"0X c #F4D32B",
"qX c #F9D62B",
"wX c #FDDB2C",
"eX c #E8C832",
"rX c #F7D432",
/* pixels */
"                                                                                                                        ",
"                                                                                                                        ",
"                                                                                                                        ",
"                                                                        4 7 8 =.                                        ",
"                                                                    =.3 :.u.F # 4 O.                                    ",
"                                                                  O.@ i.Q.XXQ.G.w.P # X.                                ",
"                                                                3 m C.XXI.I.I.I.XXQ.Z.U # %.                            ",
"                                                            =.X :.E.I.L.I.I.I.I.L.I.I.Q.s.. d                           ",
"                                                          #.. s.Q.I.K.I.I.I.I.I.I.I.K.I.$XM.. u                         ",
"                                                        o.. N.$XI.K.I.I.I.I.I.I.I.I.I.I.L.XXN.. 5                       ",
"                                                      4 M R..XL.I.I.I.I.I.I.I.I.I.I.I.I.I.L.Y.Z.h # $.                  ",
"                                                  #.# 1.!.I.K.I.I.I.I.I.I.I.I.I.I.I.I.I.I.I.K.I.!.s.. d                 ",
"                                                p . d.Q.I.K.I.I.I.I.I.I.I.I.I.I.I.I.I.I.I.I.I.L.I.$XM.. $.              ",
"                                              4 h A.XXI.P.I.I.I.I.I.I.I.I.I.I.I.I.I.I.I.I.I.I.I.T.K.XXe.#               ",
"                                          $.# 2.E.Y.K.I.I.I.I.I.I.I.I.I.I.I.I.I.I.I.I.I.I.I.I.I.I.K.I.!.M p             ",
"                                        p . d.Q.I.K.I.I.I.I.I.I.I.I.I.I.I.I.I.I.I.I.I.L.L.I.I.I.Y.XXY.$XN.q             ",
"                                      8 - /.XXP.L.I.I.I.I.I.I.I.I.I.I.I.I.I.I.K.K.K.I.I.I..XY.U.n.8.,.L ; . #.          ",
"                                    7 F }..XI.I.I.K.I.I.I.I.I.I.I.I.I.P.K.L.I.I.I..XY.W.m.i.L = X # V , } r.6           ",
"                                *.4 8.%X.XT.U.U.Y.I.I.I.I.I.I.I.L.L.I.I..X.XY.J.m.w.S . X # ' j.(.3X7X7X9X4X3           ",
"                              d . a.%Xn.2.G F G I N.U.I.I.I.I.I..XXXU.H.n.w.F . . # } x.`.3X7X9X;X*X*X*X*X@Xr           ",
"                            3 . /.W.S . . X X X . . g..XI.Y.Y.J.a.2.j . . @ n r.(.3X9X;X;X*X*X&X&X&X&X&X*X1Xi           ",
"                        *.. 9.E.R.. . Z I <.<.,.W ; O A.n.u.U . X # ] z.~.2XqX9X;X*X&X&X-X-X-X-X-X-X-X-X*X0Xb           ",
"                      +.. g.Q..XW . W 4.>.>.>.>.3.W . . X @ _ j.~.4XqX9X;X*X*X&X-X-X-X-X-X-X-X-X-X-X-X-X*X7XB           ",
"                    t ; Z.Y.I.W.* Z 4.>.>.>.>.>.>.-.X x.~.{.qX9X;X*X*X&X&X&X-X-X-X-X-X-X-X-X-X-X-X-X-X-X*X8XA           ",
"                %.3 M E..XI..XC.. D >.>.>.>.>.>.3.K > 0X>X;X*X&X&X&X-X-X-X-X-X-X-X-X-X-X-X-X-X-X-X-X-X-X&X8XT           ",
"              s . 0.|.T.m.u.;.o . ; <.>.>.>.>.>.4.g B 7X&X-X-X-X-X-X-X-X-X-X-X-X-X-X-X-X-X-X-X-X-X-X-X-X&X8XR @.        ",
"            f . T M.L . @ # < r.t.. I 3.>.>.>.>.,.. r.9X&X-X-X-X-X-X-X-X-X-X-X-X-X-X-X-X-X-X-X-X-X-X-X-X&X9X{ &.        ",
"        *.X . . X # < z.].4X0X9X0X> . I 3.>.>.2.g @ 4X*X&X-X-X-X-X-X-X-X-X-X-X-X-X-X-X-X-X-X-X-X-X-X-X-X&X9X} 0         ",
"        d + } z.b.2X0X9X;X*X*X&X*X].@ . G -.-.S . c.;X&X&X-X-X-X-X-X-X-X-X-X-X-X-X-X-X&X*X*X;X&X-X-X-X-X&X9X( ..        ",
"        o.b.wX9X;X*X*X&X&X&X-X-X&X;X{.] . . . . l.9X&X-X&X-X-X-X-X-X-X-X-X-X-X-X-X&X;X;X@X+X@X;X*X-X-X-X&X9X/ 9         ",
"        7 ).*X&X&X&X-X-X-X-X-X-X-X&X*XqX'.t.k.].9X*X-X-X-X-X-X-X-X-X-X-X-X-X-X-X&X;X X/ O X + q.=X*X-X-X&X9X( 7         ",
"        u 1X*X&X-X-X-X-X-X-X-X-X-X-X&X*X;X9X9X*X&X-X-X-X-X-X-X-X-X-X-X-X-X-X-X-X;X_.X . z Q c . ^ 8X&X-X&X9X{ ..        ",
"        5 S.>X&X-X-X-X-X-X-X-X-X-X-X-X-X&X&X&X-X-X-X-X-X-X-X-X-X-X-X-X-X-X-X-X*X6X: . 9.<.>.5.W . f.;X-X&X9XE o.        ",
"        u . f.;X&X-X-X-X-X-X-X-X-X-X-X-X-X-X-X-X-X-X-X-X-X-X-X-X-X-X-X-X-X-X&X;Xx.. 9.>.>.>.>.4.Q X 1X*X&X8XA @.        ",
"          s X h.;X&X-X-X-X-X-X-X-X-X-X-X-X-X-X-X-X-X-X-X-X-X-X-X-X-X-X-X-X-X*X8XV l 4.>.>.>.>.>.<.. f.;X&X7XV           ",
"            y Y 9X&X-X-X-X-X-X-X-X-X-X-X-X-X-X-X-X-X-X-X-X-X-X-X-X-X-X-X-X-X*X<XX U >.>.>.>.>.>.4.; E 8XoX0X1           ",
"              1 5X*X-X-X-X-X-X-X-X-X-X-X-X-X-X-X-X-X-X-X-X-X-X-X-X-X-X-X-X-X*X_.X L >.>.>.>.>.>.4.j C 7X*X1Xi           ",
"              * 1X*X-X-X-X-X-X-X-X-X-X-X-X-X-X-X-X-X-X-X-X-X-X-X-X-X-X-X-X-X*X_.X L >.>.>.>.>.>.3.v C 7X*X@Xa           ",
"            q R wX&X-X-X-X&X-X-X-X-X-X-X-X-X-X-X-X-X-X-X-X-X-X-X-X-X-X-X-X-X*X3X# K 3.>.>.>.>.>.<.. t.9X*X#Xr           ",
"          #.X {.*X-X-X-X&X;X;X;X;X&X-X-X-X-X-X-X-X-X-X-X-X-X-X-X-X-X-X-X-X-X*X7XC j 4.>.>.>.>.4.G X {.*X;X<X#           ",
"          4 r.9X&X-X-X&X;XS.! / F.;X-X-X-X-X-X-X-X-X-X-X-X-X-X-X-X-X-X-X-X-X&X;Xx.. 2.4.>.>.4.U . l.9X&X*X<X@           ",
"          3 2X*X-X-X-X;X_.. X X . h.;X&X-X-X-X-X-X-X-X-X-X-X-X-X-X-X-X-X-X-X-X*X0X] . = K 2.k . } qX*X&X*X1X%           ",
"          3 D.;X-X-X&X;X) o 0.0.c . +X*X-X-X-X-X-X-X-X-X-X-X-X-X-X-X-X-X-X-X-X-X*X3Xk.` # . # v.0X*X-X&X*X1X$           ",
"          | S.;X&X-X*X5X: D 3.>.9.X (.;X-X-X-X-X-X-X-X-X-X-X-X-X-X-X-X-X-X-X-X-X-X*X9XrX].v.[.9X*X-X-X-X*X2X#           ",
"          | h.>X&X-X*X<X@ I >.>.<.X (.;X-X-X-X-X-X-X-X-X-X-X-X-X-X-X-X-X-X-X-X-X-X-X&XoX;X9X*X&X-X-X-X-X;XD.3           ",
"          9 f.>X&X-X*X<XX ,.5.5.P @ 2X*X-X-X-X-X-X-X-X-X&X&X-X-X-X-X-X-X-X-X-X-X-X-X-X-X&X&X&X-X-X-X-X&X;X).@           ",
"          | y.9X&X-X&XqX` . k M . } 9X&X-X-X-X-X-X-X-X-X&X-X-X-X-X-X-X-X-X-X-X-X-X-X-X-X-X-X-X-X-X&X&X&X;X^.3           ",
"          9 q.9X&X-X-X;X[.[ e & ` {.*X-X-X-X-X-X-X-X-X-X&X-X-X-X-X-X-X-X-X-X-X-X-X-X&X&X&X&X&X&X*X*X;X*X,XV.7           ",
"          4 ^ 9X&X-X-X&X;XqXeXeXrX;X&X-X-X-X-X-X-X-X-X-X-X-X-X-X-X-X-X&X*X*X;X;X;X;X;X>X>X;X;X;X;X=X@XD.V.! 3           ",
"            B 7X*X-X-X-X&XoX*X*XoX&X-X-X-X-X-X-X&X-X-X;X;X;X;X;X;X>X;X;X&X=XOXOX+X+XF.h.g.6.6.7.~ N ; . # 3             ",
"            u 1X*X&X-X-X-X&X&X&X&X&X&X&X;X;X;X;X;X;X;X&X&X:X#XF.S.g.y.! J x > + @ # # @ # 3 4  .7                       ",
"            3 _.>X;X*X&X*X*X;X;X;X;X>X;X;X&XOXF.V.p.7.H Y V & # @ # # 4 9                                               ",
"            4 h.9X=X;X;X-X=X=X@X#XB.V.p.6.H , # 3 7 |                                                                   ",
"            r h N N 1.7.~ J N 2 % 3 # # 7 4                                                                             ",
"            u @ 4 O.3 # # w 9                                                                                           ",
"                                                                                                                        ",
"                                                                                                                        ",
"                                                                                                                        ",
"                                                                                                                        ",
"                                                                                                                        "
};
