/* XPM */
static char *_b8cf6daea1842a6fbc0bb0cc8d43a68egdxxbq5FeYJFJME[] = {
/* columns rows colors chars-per-pixel */
"60 60 148 2 ",
"   c None",
".  c #000000",
"X  c #0A0705",
"o  c #0E0F06",
"O  c #0F0B09",
"+  c #1B0200",
"@  c #120E0A",
"#  c #16110D",
"$  c #1A150E",
"%  c #131312",
"&  c #1A1511",
"*  c #1D1913",
"=  c #1F1C19",
"-  c #20180F",
";  c #211B15",
":  c #241E19",
">  c #292116",
",  c #2B231B",
"<  c #382F1D",
"1  c #2C2621",
"2  c #292827",
"3  c #2F2F2F",
"4  c #352D25",
"5  c #362F28",
"6  c #3D3426",
"7  c #3B332C",
"8  c #292E32",
"9  c #303335",
"0  c #373839",
"q  c #3D3D3D",
"w  c #402F1E",
"e  c #413526",
"r  c #483523",
"t  c #40372E",
"y  c #42382D",
"u  c #493A2C",
"i  c #503E2C",
"p  c #453B32",
"a  c #4A3F36",
"s  c #4E432F",
"d  c #4B4135",
"f  c #4D443A",
"g  c #544532",
"h  c #594531",
"j  c #51463C",
"k  c #55493F",
"l  c #594C3D",
"z  c #614D32",
"x  c #614E3C",
"c  c #65523D",
"v  c #6F573F",
"b  c #3C3F42",
"n  c #3D4144",
"m  c #424243",
"M  c #4A4A4B",
"N  c #564B42",
"B  c #5B4E44",
"V  c #5D5145",
"C  c #5E5248",
"Z  c #545658",
"A  c #5A5A5C",
"S  c #645343",
"D  c #695644",
"F  c #6A5844",
"G  c #62554A",
"H  c #675A4E",
"J  c #6D5C4C",
"K  c #715E4D",
"L  c #6D5E51",
"P  c #756145",
"I  c #786546",
"U  c #73614E",
"Y  c #7A674A",
"T  c #7E6A4C",
"R  c #6E6153",
"E  c #746455",
"W  c #796655",
"Q  c #7C6856",
"!  c #756659",
"~  c #796758",
"^  c #77685B",
"/  c #7C6B5C",
"(  c #646466",
")  c #6A696B",
"_  c #7F6F60",
"`  c #826E55",
"'  c #886F51",
"]  c #816E5C",
"[  c #8B7253",
"{  c #84705E",
"}  c #8C775B",
"|  c #8C795E",
" . c #806F60",
".. c #847263",
"X. c #8A7664",
"o. c #8E7965",
"O. c #877768",
"+. c #887768",
"@. c #8D7B6B",
"#. c #917A66",
"$. c #937E6B",
"%. c #917F70",
"&. c #968162",
"*. c #988265",
"=. c #95816E",
"-. c #99836E",
";. c #968371",
":. c #998674",
">. c #9C8876",
",. c #9D8A79",
"<. c #A08461",
"1. c #A58B69",
"2. c #B3956F",
"3. c #A58E77",
"4. c #A78E74",
"5. c #A18B73",
"6. c #AA8F71",
"7. c #A08C79",
"8. c #A18D7A",
"9. c #A18D7B",
"0. c #A79077",
"q. c #A99075",
"w. c #AB9175",
"e. c #A89176",
"r. c #AA9277",
"t. c #AC9176",
"y. c #AD9475",
"u. c #A6907A",
"i. c #A6907C",
"p. c #AE9679",
"a. c #B89C76",
"s. c #B0977B",
"d. c #B39B7B",
"f. c #B79B78",
"g. c #B69D7E",
"h. c #B99B78",
"j. c #9D9C9B",
"k. c #A79280",
"l. c #BEA381",
"z. c #BDA384",
"x. c #AFAFAF",
"c. c #B6B6B6",
"v. c #BCBCBC",
"b. c #C1A682",
"n. c #D9DADA",
"m. c #DADADA",
"M. c #EEEEEE",
"N. c #F8F8F9",
/* pixels */
"                                                                                                                        ",
"                                                                                                                        ",
"                                                  $ , . . . . . . , # . > ; .                                           ",
"                                            * . . . . . e D Y Y 6 . . . . . @ . . .                                     ",
"                                        . @ . . s r { 1.a.b.f.z.&.P #.v [ g . @ . . .                                   ",
"                                    . @ : . < 5.:.D u.3.5.8.$.8.w.w.-.F 6.-.o . ; $ . . .                               ",
"                                  . @ . . . X.i.$.S ;.$.@.;.#.;.;.>...F o.3.c . . . - > $ .                             ",
"                                . # . 7 E j =.;.@.S ;.=.=.:.$.:.;.:...K X.t.' . , l . . . # .                           ",
"                              . @ . 1 o.8...$.;.;.c =.;.$.:.$.:.:.>...K X.w.[ . } b.*.#.z . X .                         ",
"                            . O ; . ! ;.:.O.$.=.;.D $.;.=.;.#.:.:.>...U @.w.c . =.3.s.h.2.y . & .                       ",
"                          X . . . u ;.;.:.@.$.=.;.F $.;.=.;.#.:.:.:.] W $.5.<.` :.;.;.] p.| . . % .                     ",
"                        # . * B f ] ;.=.:.@.#.=.;.D =.;.=.=.#.:.:.:.Q Q ;.$.-.5.:.=.;.{ g.I n m . %                     ",
"                        & . G >.X.$.;.=.:.@.o.;.;.S ;.;.=.=.#.:.:.;.Q ..;.=.$.$.:.=.=.o.y.B n.M.q . %                   ",
"                      * . : @.>...@.;.=.:.@.o.;.$.D :.=.;.$.#.:.:.;.Q ..;.=.=.$.:.;.$.X.l.R Z n.3 . .                   ",
"                      * . S :.;...@.=.=.:.;.#.:.@.F >.=.;.$.#.:.:.=./ ..;.=.;.$.;.;.o.=.d.+ 8 q x.c.. %                 ",
"                      . . Q :.;...@.=.=.:.;.$.:.@.J ,.=.;.$.#.>.;.$./ ..;.=.;.$.;.=.X.0.U . . q v.N.A .                 ",
"                    : . f $.;.;. .@.=.=.:.=.$.>.@.J ,.$.;.$.#.>.=.$./ ] ;.=.;.$.;.=.X.0.d . = . . j.4 .                 ",
"                    @ . E ;.=.:./ @.$.;.:.=.$.>.@.J ,.$.;.$.$.>.$.=./ ] ;.=.;.$.=.#.#.>.V . . . ! } T . >               ",
"                    . X O.:.$.>./ X.$.;.;.;.$.:.@.J ,.$.;.$.$.:.#.;./ ] ;.=.=.$.$.#.$.:.;.6 . D 5.k.#.. $               ",
"                    . 4 %.;.$.>./ X.#.;.;.;.$.:.+.J ,.$.;.=.=.;.#.:.^ ] :.$.;.$.#.#.=.>.;.S @.5.;.;.=.* .               ",
"                    . 7 ;.;.$.>./ ..$.:.=.:.$.;...K ,.$.;.=.;.=.#.:.^ { >.$.:.;.=.$.;.,.@.J 8.$.;.;.@.1 .               ",
"                  : . p ;.;.#.>. ...$.:.=.:.=.;._ U ,.$.;.;.;.$.#.:.^ { >.$.;.>.:.$.;.,...K :.$.;.=.:.j . :             ",
"                  ; . a ;.;.o.>.....;.:.=.;.$.;./ W ,.$.;.;.;.$.$.:.~ ..>.$.;.:.;.$.;.8./ E ,.$.:.=.>.R . :             ",
"                  * . a ;.;.o.>...] >.:.=.=.$.-.^ W ,.$.:.;.;.$.$.:.^ X.>.$.;.>.;.$.;.8.K Q >.$.:.$.>.! . ;             ",
"                  & . d ;.-.o.,.../ >.;.=.=.$.-.! W ,.$.:.=.;.$.$.;.~ X.>.$.;.>.;.$.;.,.F ] :.$.:.$.,.! . ;             ",
"                  & . k :.=.o.,...Q >.;.=.=.$.-.! U ,.$.:.$.:.$.$.;.! X.:.$.;.>.=.$.:.>.c ..;.$.;.$.,.... #             ",
"                  @ . G ,.$.o.,...Q :.;.=.=.$.-.E J ,.$.:.$.:.$.$.;.^ o.:.$.;.>.=.=.:.;.x +.=.=.;.=.,.@.. .             ",
"                  . . E ,.$.o.,._ W :.;.=.$.=.;.J J ,.$.;.$.:.$.$.;.^ @.;.$.;.>.=.=.:.$.x $.$.;.=.=.,.$.; .             ",
"                  . # { ,.$.#.,./ W :.;.=.$.=.;.S F >.$.;.$.>.$.=.;.! #.;.$.;.>.$.;.;.X.S =.#.:.$.;.>.;.4 .             ",
"                  . 4 o.,.$.#.,./ ! :.;.=.$.=.;.l D >.$.;.$.>.$.;.;.! #.;.$.;.>.$.;.-...S =.o.:.=.;.:.;.7 .             ",
"                  . , X.,.$.#.,...W :.;.=.$.=.-.V S >.$.=.=.:.$.;.$.! $.=.$.;.:.$.;.-. .D =.-.>...:.,.;.7 .             ",
"                * . 4 X.>.$.#.>...W :.;.=.$.;.-.V S >.$.$.;.:.$.>.@.E $.=.$.;.;.=.$.-.^ J ;.U N . B :.;.4 .             ",
"                * . p $.:.$.$.,./ ! :.;.=.=.;.-.V S >.$.$.:.:.$.>.@.E $.=.$.;.=.;.$.:.R K G 8 b n . L >.1 .             ",
"                & . d $.:.$.$.>./ W :.;.=.:.;.;.G S ;.$.$.:.:.$.>.@.E =.$.$.=.$.:.#.;.J i 0 M A ) n , $.4 .             ",
"                & . y o.:.#.$.>./ W :.:.$.>.;.;.L D ;.$.$.:.:.$.>.O.E ;.$.;.#.$.:.#.:.G w m M Z ( M ; @.5 .             ",
"                & . y o.;.#.$.,.] ! :.:.$.>.=.:.! F ;.#.$.>.:.$.:...E ;.$.;.:.:.;.#.:.V g q M M M 9 7 @.* .             ",
"                # . j $.;.#.$.,./ ! ;.:.$.:.=.:./ U ;.#.$.>.:.=.;...E :.#.;.:.:.=.#.;.j ! 2 b M m . L @.. #             ",
"                @ . C =.=.$.$.,./ ! ;.=.=.;.$.:./ W ;.#.$.:.:.;.-./ E >.#.;.:.>.$.=.;.e $.^ * % . d :.... &             ",
"                @ . G ;.=.$.$.,...! ;.$.;.=.$.>...Q ;.#.$.:.:.;.=.^ E ,.#.=.:.:.o.;.O.u $.>.o.@.] ;.,./ . *             ",
"                # . B ;.=.$.=.,.] W ;.$.;.=.$.>...Q ;.#.$.:.:.;.=.! ! ,.#.$.>.:.X.>./ h ;.;.$.,.#.=.,.^ . *             ",
"                & . k ;.=.#.=.>.^ W ;.$.:.=.$.>.X.] -.$.#.:.:.;.=.! ! 8.$.$.>.=.X.8.! x :.;.$.:.o.;.,.G . ;             ",
"                # . V ;.$.#.=.>.E W :.$.:.=.$.>.@.] =.$.#.:.:.;.$.! ! 9.$.$.>.$.o.9.R D >.=.$.:.#.;.:.t . &             ",
"                O . H >.$.$.=.>.E W :.$.:.=.#.>.@.] =.$.#.:.:.=.=.! ! 9.$.$.:.#.$.9.F J ,.=.=.:.#.;.@.. . X             ",
"                @ . G :.$.$.$.>.! W :.$.:.=.#.,.@.{ =.=.#.:.:.$.=.! E 9.$.$.:.#.=.,.J E ,.=.;.:.#.:. .. # .             ",
"                & . f =.;.$.$.>.! W :.$.:.=.#.,.@.{ =.;.#.:.:.$.;.^ E 9.$.=.;.#.;.>.! W >.=.;.:.o.:.E . & .             ",
"                & . 7 @.;.$.$.>.! W :.$.:.=.#.,...] =.;.$.:.:.#.;./ E 9.$.=.;.$.;.;...] :.=.:.:.#.:.G . & .             ",
"                & . 7 @.;.$.$.>.! Q :.$.:.=.#.,...] =.;.$.;.:.#.:...^ ,.$.=.=.$.=.=.;.o.:.=.:.;.#.:.k . #               ",
"                & . p @.;.=.#.>.^ Q ;.$.:.=.#.,...] =.;.$.;.:.#.:.@.] ,.$.;.=.$.$.;.=.X.;.=.:.;.#.>.B . $               ",
"                & . 7 o.;.=.#.>.^ W ;.$.:.=.#.,...] =.=.=.=.;.o.>.@.] >.$.=.;.$.#.>./ { ;.=.:.=.#.,.G . &               ",
"                # . 1 ..;.=.#.>.^ W ;.$.:.=.#.,...] =.$.;.=.;.o.>.@.Q >.$.=.;.$.#.>.E ] ;.;.:.=.$.,.V . &               ",
"                $ . 4 X.;.=.o.>./ W ;.=.;.=.#.,._ Q -.$.;.=.;.o.>.@.^ >.$.=.;.$.#.>.! ] =.;.:.$.$.,.N . #               ",
"                & . 7 o.;.=.o.>./ W ;.=.;.=.$.>._ W -.$.;.=.;.o.>.@.^ >.$.=.;.$.#.>.E ] =.;.:.$.=.,.N . &               ",
"                & . 5 +.;.=.o.>._ W ;.=.;.=.$.>...W ;.#.:.$.:.o.:.@.! :.$.;.;.=.#.:.J ] =.:.:.$.;.,.B . &               ",
"                & . 1 X.;.=.o.>. .E ;.;.;.=.$.>...! ;.#.:.$.:.#.;.@.^ ;.$.;.;.=.$.;.G ] =.:.:.$.;.>.N . &               ",
"                & . , X.;.$.X.;./ K =.=.$.$.#.:...U ;.X.;.$.;.o.=.$./ =.$.;.=.=.$.;.V ] $.;.;.$.;.>.N . &               ",
"                & . * @.9.:.$.8.+.U ;.>.;.>.;.8...J >.$.>.-.9.;.>.;.] ;.;.,.-.;.=.;.B o.:.,.,.=.>.8.V . ;               ",
"                X . . f ! ! K ^ H S X.@.] E G N p 4 k l H J ! L D j t k J ..$.;.$.{ u L Q ..@.X.@.@.d . *               ",
"                  . . . . . . . . . . . . . . . . . . . . . . . . . . . . . : 7 1 . . . . . . O # . . X                 ",
"                    . X . . . . . . . . . . . X . . . . . . . . . . . . . . . . . . . . . . .                           ",
"                                                                                                                        "
};
