/* XPM */
static char *_9681ebb528c4814e495a403c38ab39eLosrpog9K58sMtBd[] = {
/* columns rows colors chars-per-pixel */
"60 60 205 2 ",
"   c None",
".  c black",
"X  c #341800",
"o  c #2E1D0E",
"O  c #3A2411",
"+  c #323437",
"@  c #410000",
"#  c #55361A",
"$  c #5D3C1A",
"%  c #543615",
"&  c #492E11",
"*  c #623F1B",
"=  c #782D00",
"-  c #724300",
";  c #65411C",
":  c #6C461E",
">  c #6E491F",
",  c #734B1E",
"<  c #784B16",
"1  c #4B473B",
"2  c #55463B",
"3  c #734B20",
"4  c #744E28",
"5  c #7C5223",
"6  c #6C5436",
"7  c #5A1D40",
"8  c #5D414A",
"9  c #625E56",
"0  c #6D4C57",
"q  c #7D795E",
"w  c #785560",
"e  c #7E7862",
"r  c #823500",
"t  c #874A00",
"y  c #944F00",
"u  c #8D5200",
"i  c #9C5B00",
"p  c #915D00",
"a  c #8A5514",
"s  c #A35D00",
"d  c #996401",
"f  c #996418",
"g  c #AB6500",
"h  c #AC6A00",
"j  c #A4640B",
"k  c #A56C06",
"l  c #B56C00",
"z  c #B36E0D",
"x  c #AC7100",
"c  c #BC7301",
"v  c #BB730A",
"b  c #A4691D",
"n  c #B26E10",
"m  c #B97917",
"M  c #825524",
"N  c #865826",
"B  c #8A5B27",
"V  c #85592C",
"C  c #8D5E28",
"Z  c #905F28",
"A  c #835B37",
"S  c #94622A",
"D  c #9A662B",
"F  c #9D682C",
"G  c #9B6525",
"H  c #9C6B35",
"J  c #8D6133",
"K  c #AB6E25",
"L  c #A36C2E",
"P  c #A26A23",
"I  c #A9702F",
"U  c #AB7228",
"Y  c #B77824",
"T  c #A66F32",
"R  c #A77134",
"E  c #AC7231",
"W  c #A9743D",
"Q  c #A6733F",
"!  c #B17632",
"~  c #B57934",
"^  c #BB7D35",
"/  c #B47A3B",
"(  c #B77A3A",
")  c #C07500",
"_  c #C27800",
"`  c #C27B16",
"'  c #C37D24",
"]  c #C17D2A",
"[  c #A40071",
"{  c #9A7348",
"}  c #8B6659",
"|  c #9C7A56",
" . c #926B53",
".. c #A67748",
"X. c #B17D54",
"o. c #90546B",
"O. c #AE4E7C",
"+. c #867E67",
"@. c #9B6E77",
"#. c #9E727E",
"$. c #8C6268",
"%. c #A97C66",
"&. c #A0717F",
"*. c #B87E64",
"=. c #BF8036",
"-. c #BD813D",
";. c #C6822E",
":. c #C98326",
">. c #C38237",
",. c #CA8634",
"<. c #C58439",
"1. c #C98639",
"2. c #CC893B",
"3. c #D28C3C",
"4. c #D88F36",
"5. c #AD804F",
"6. c #BC8549",
"7. c #A78256",
"8. c #B18553",
"9. c #999375",
"0. c #8E8871",
"q. c #A58862",
"w. c #AF956F",
"e. c #A59777",
"r. c #B19D79",
"t. c #B58F73",
"y. c #B7A27C",
"u. c #C58641",
"i. c #C68844",
"p. c #CA8A41",
"a. c #D18E42",
"s. c #D6934A",
"d. c #9E7181",
"f. c #A77786",
"g. c #B27E86",
"h. c #D84399",
"j. c #E44AA2",
"k. c #F279AF",
"l. c #978C85",
"z. c #969799",
"x. c #838287",
"c. c #A59A88",
"v. c #B09C8F",
"b. c #BB8696",
"n. c #BA8596",
"m. c #B49E90",
"M. c #B49092",
"N. c #ABA485",
"B. c #B5A88B",
"V. c #BBB594",
"C. c #BFBA99",
"Z. c #A7A9AD",
"A. c #B7ABA4",
"S. c #BAB7B4",
"D. c #C38C9D",
"F. c #C49893",
"G. c #C4AC84",
"H. c #C4BD9A",
"J. c #C4BB97",
"K. c #C2B38E",
"L. c #CB91A3",
"P. c #DA9CAD",
"I. c #D497A8",
"U. c #DB9EB3",
"Y. c #D4A9AC",
"T. c #E0A1B3",
"R. c #EEABBE",
"E. c #E4A4B9",
"W. c #F0ACBF",
"Q. c #CBC29D",
"!. c #D1C59F",
"~. c #CDC5A1",
"^. c #CFC8A5",
"/. c #D4CBA5",
"(. c #D4CCA8",
"). c #D6CAA5",
"_. c #DAD2AC",
"`. c #DED7B1",
"'. c #CDC9B5",
"]. c #E5DDB3",
"[. c #EDE5BC",
"{. c #E7E0B8",
"}. c #F4ECBF",
"|. c #ECAAC1",
" X c #F2AEC1",
".X c #F6B1C4",
"XX c #F8B2C6",
"oX c #FCB5C9",
"OX c #FFB8CC",
"+X c #C4C6C8",
"@X c #D0CECE",
"#X c #D7D5D5",
"$X c #D8D1CD",
"%X c #F6ECC1",
"&X c #F9EFC3",
"*X c #FDF2C5",
"=X c #FFF6C9",
"-X c #FFFACC",
";X c #F6F1C5",
":X c #EDE9C1",
">X c #DEDFE0",
",X c #E5E7E9",
"<X c #F2F4F4",
"1X c #FEFFFF",
"2X c #F7FBFD",
/* pixels */
"                                                                                                                        ",
"                                                                                                                        ",
"                                          C ^ E O                                                                       ",
"                                        L 3.2.3.!                                 V T U n d #                           ",
"                                      C 2.^ ! ! ^ $     ;                     V ^ :.m X.*.*.b X                         ",
"                                    % ^ E F S N 5 5 > 5 > B B             , ! 3.m %.L.E.|.|.P.}                         ",
"                                    M 3.2.1.>.~ E E 3 > 5 N E E C       F 2.2.P b.|..X XW.W..X Xw                       ",
"                                    B ^ L D D L L E >.^ >.<.>.1.3.E B >.2.2.f D.XXW.R.R.R.R.R.XXb.                      ",
"                                    3 F E ^ >.2.E ~ ^ C F L 1.>.~ ~ 1.1.<.x f.XXR.R.W.R.R.R.R..XI.                      ",
"                                % , L 1.1.1.>.1.F / ..W >.S ! 1.>.1.<.>.,.A T. XR.R.R.R.R.R.R..XP.                      ",
"                              , W s.~ =.<.>.>.<./ p t i 3.I E 1.>.>.>.<.m @. XR.R.R.R.R.R.R.R..XP.                      ",
"                            $ / u y ,.<.>.<.>.u._ } Z.c.Y ~ ^ <.>.<.>.2.k n..XR.R.R.R.R.R.R.R.XXD.                      ",
"                            u.h l.+XQ ,.>.>.u.) B.<X1X,XG 2.<.>.<.<.>.2.p L..XR.R.W.R.R.R.R.R.XX&.                      ",
"                          4 ,.| <X1Xv.c u.<.` t.2X1X1X,Xf 2.>.<.<.<.>.2.d b.oXW..XR.R.W.R.R. X X0                       ",
"                          A ) S.1X1XS.l u.p.h #X1X2X1X@Xg p.>.<.<.<.<.1.Y  .P.R.L.b. XR.R.R.XXL.                        ",
"                          A l @X1X1XA.l i.:.%.1X1X1X1Xm._ u.<.<.<.<.<.>.<.K f  .$.T. XR.R. XXXw                         ",
"                            s #X<X+Xv.c i.c A.+X+X1X>Xh 2.>.>.>.>.>.>.>.1.f g.P.R. XR.W.R.XXn.                          ",
"                            r $XS.. ..,.<.' l.. 9 1Xm.c u.<.1.1.1.1.1.<.1.h f.oXR.R.W.R.XXT.                            ",
"                            = H.Z.. 6.2.>.,.< . z.,Xi -.1.1.>.^ ~ ~ ~ ^ 1.x @..XR.R.R.XXR.8                             ",
"                            U ..z.6 U ^ <.6.q.q '.c.s / E E R E E ! ~ ^ p.d n..XR. XoXT.8                               ",
"                        M R u K.[.9 z.x.X ].;X*X/.B E / -.>.1.1.1.<.<.<.1.< U.XX.XoXb.                                  ",
"                      o E / t /.-X9.+ 0.Q.&X&X}.C.J ~ K i i G R ^ >.>.2.k f.OX.XP.#.                                    ",
"                        ^ 2.;.5._.[./.].=X=X=X*X_.2 - | G.).e.j 1.>.1.1.& d.f.$.                                        ",
"                        $ 1.2.` } /./.N.1 9.c.+.. . . H.-X-XB.c 2.1.1.;                                                 ",
"                          % F 2...[.*X&XB.. . . 7 o.O.].*X&X7.;.1.! $                                                   ",
"                              4 t e.;X=X-XB.. o.k.j.F.=X-XV.t R M                                                       ",
"                                  . +./.(.&X9.[ h.b.}.{.V.a ! ! L D                                                     ",
"                                  H z b b w.{.(.(.;X~.6 t 1.2.1.2.3.>.B                                                 ",
"                                D 3.p.2.<.v X.J./.r.j ] <.1.>.>.>.<.1.2.E #                                             ",
"                              C 2.>.1.! K p.] l g c 2.<.1.>.<.<.<.<.>.<.2.1.3                                           ",
"                            5 2.1.<.^ V { ] <.p.1.8.^ 1.>.>.>.>.<.<.<.<.>.1.2.M                                         ",
"                          $ 1.1.>.<.n 9.[.7.' ;.7.:Xy.c <.>.1.1.<.>.>.<.<.>.1.2.B                                       ",
"                          ~ 2.>.>.2.g H.-X`.W g /.-X[.5.;.1.! ~ 1.1.1.>.>.<.>.1.3.N                                     ",
"                        L 2.>.<.>.2.j (.*X*X]./.*X&X=X/.n 2.^ F F ~ 3.2.1.>.>.>.1.2.5                                   ",
"                      Z 3.>.<.<.>.p.i ^.=X&X*X=X&X&X&X=Xr.v 2.1.^ ; M I 2.2.1.>.>.1.1.                                  ",
"                    3 2.1.<.>.<.2.<.@ /.=X&X&X&X&X&X&X*X{.H ,.>.2.E     3 D <.2.1.>.1.~ S 3                             ",
"                  > 1.1.>.<.1.3.E     /.=X&X&X&X&X&X&X&X=XQ.g p.>.2.L         D 1.1.>.1.3.2.E 3                         ",
"              5 F 1.1.>.1.2.<.D       ~.=X&X&X&X&X&X&X&X&X=Xy.c u.>.2.!         ; ^ 1.>.>.1.1.>.^ >.>.&                 ",
"      E L S E 2.3.1.>.>.1.L           H.-X&X&X&X&X&X&X&X&X*X%X| ' <.>.2.>.5       ~ 1.1.2.2.>.! I L S                   ",
"    * ~ E ! <.1.>.>.1.^ :             B.-X&X&X&X&X&X&X&X&X&X=X`.P 1.>.>.1.2.C   5 1.2.1.E E 1.2.>.L                     ",
"    : 5 F ! <.3.3.2.1.=.              9.-X&X&X&X&X&X&X&X&X&X&X=XJ.g p.>.>.1.2.: ! 3.E ;       S F B                     ",
"    , E ! E E L D F 1.3.S             1 &X*X&X&X&X&X&X&X&X&X&X&X*Xe.l <.>.>.1.E C 5                                     ",
"                      L S               ~.=X&X&X&X&X&X&X&X&X&X&X*X[.{ ;.1.<.>.2.^               L L E F S B M *         ",
"                                        e -X*X&X&X&X&X&X&X&X&X&X&X=XJ.h 2.>.<.>.2.N *   D D L ! F C                     ",
"                                          V.-X&X&X&X&X&X&X&X&X&X&X=X/.j 2.>.<.>.1.L F 1.! F B                           ",
"                                          . ~.-X*X&X&X&X&X&X&X&X&X=XH.g 2.>.<.>.1.>.O                                   ",
"                                          , i N.%X=X&X&X&X&X&X&X*X;Xq.' 1.<.<.<.<.2.,                                   ",
"                                          S 3.g | ^.&X=X=X=X=X=X%Xy.m <.>.<.<.<.>.2.B                                   ",
"                                          L 1.2.' j q.K.!./.Q.G.6.` <.>.<.<.<.<.>.1.L                                   ",
"                                          ^ 1.>.<.2.' l h z g y K 2.2.1.>.<.<.<.>.1.^                                   ",
"                                        3 2.<.<.<.>.<.p.a.2.H     , F 2.2.1.>.<.>.<.2.>                                 ",
"                                        S 2.>.<.<.>.1.2.F             > L 2.1.>.>.>.2.F                                 ",
"                                        ^ 1.>.<.>.1.1.N                   M ~ 2.1.>.1.1.                                ",
"                                      5 2.<.<.>.1.~ #                         D 1.1.>.1.E S S                           ",
"                                    E ^ <.<.>.1.^                               N >.1.>.1.3.3.>.! L                     ",
"                              N ~ >.^ >.<.>.>.2.F                               O 2.2.1.<.<.1.1.=.>.<.D                 ",
"                            L 4.E I ^ 1.2.2.2.2.M                                 S >.2.2.2.1.>.! E D 3.$               ",
"                            B Z > ~ ~ ! L F B                                         N S L E ~ >.~ $ $                 ",
"                                                                                                                        ",
"                                                                                                                        "
};
