/* XPM */
static char *_685823fc98a4bde8bf5a110332f214eQExKtkeiEMtzQDjA[] = {
/* columns rows colors chars-per-pixel */
"60 60 205 2 ",
"   c None",
".  c black",
"X  c #341800",
"o  c #2E1D0E",
"O  c #3A2411",
"+  c #323437",
"@  c #410000",
"#  c #55361A",
"$  c #5D3C1A",
"%  c #543615",
"&  c #492E11",
"*  c #623F1B",
"=  c #782D00",
"-  c #724300",
";  c #65411C",
":  c #6C461E",
">  c #6E491F",
",  c #734B1E",
"<  c #784B16",
"1  c #4B473B",
"2  c #55463B",
"3  c #734B20",
"4  c #744E28",
"5  c #7C5223",
"6  c #6C5436",
"7  c #5A1D40",
"8  c #5D414A",
"9  c #625E56",
"0  c #6D4C57",
"q  c #7D795E",
"w  c #785560",
"e  c #7E7862",
"r  c #823500",
"t  c #874A00",
"y  c #944F00",
"u  c #8D5200",
"i  c #9C5B00",
"p  c #915D00",
"a  c #8A5514",
"s  c #A35D00",
"d  c #996401",
"f  c #996418",
"g  c #AB6500",
"h  c #AC6A00",
"j  c #A4640B",
"k  c #A56C06",
"l  c #B56C00",
"z  c #B36E0D",
"x  c #AC7100",
"c  c #BC7301",
"v  c #BB730A",
"b  c #A4691D",
"n  c #B26E10",
"m  c #B97917",
"M  c #825524",
"N  c #865826",
"B  c #8A5B27",
"V  c #85592C",
"C  c #8D5E28",
"Z  c #905F28",
"A  c #835B37",
"S  c #94622A",
"D  c #9A662B",
"F  c #9D682C",
"G  c #9B6525",
"H  c #9C6B35",
"J  c #8D6133",
"K  c #AB6E25",
"L  c #A36C2E",
"P  c #A26A23",
"I  c #A9702F",
"U  c #AB7228",
"Y  c #B77824",
"T  c #A66F32",
"R  c #A77134",
"E  c #AC7231",
"W  c #A9743D",
"Q  c #A6733F",
"!  c #B17632",
"~  c #B57934",
"^  c #BB7D35",
"/  c #B47A3B",
"(  c #B77A3A",
")  c #C07500",
"_  c #C27800",
"`  c #C27B16",
"'  c #C37D24",
"]  c #C17D2A",
"[  c #A40071",
"{  c #9A7348",
"}  c #8B6659",
"|  c #9C7A56",
" . c #926B53",
".. c #A67748",
"X. c #B17D54",
"o. c #90546B",
"O. c #AE4E7C",
"+. c #867E67",
"@. c #9B6E77",
"#. c #9E727E",
"$. c #8C6268",
"%. c #A97C66",
"&. c #A0717F",
"*. c #B87E64",
"=. c #BF8036",
"-. c #BD813D",
";. c #C6822E",
":. c #C98326",
">. c #C38237",
",. c #CA8634",
"<. c #C58439",
"1. c #C98639",
"2. c #CC893B",
"3. c #D28C3C",
"4. c #D88F36",
"5. c #AD804F",
"6. c #BC8549",
"7. c #A78256",
"8. c #B18553",
"9. c #999375",
"0. c #8E8871",
"q. c #A58862",
"w. c #AF956F",
"e. c #A59777",
"r. c #B19D79",
"t. c #B58F73",
"y. c #B7A27C",
"u. c #C58641",
"i. c #C68844",
"p. c #CA8A41",
"a. c #D18E42",
"s. c #D6934A",
"d. c #9E7181",
"f. c #A77786",
"g. c #B27E86",
"h. c #D84399",
"j. c #E44AA2",
"k. c #F279AF",
"l. c #978C85",
"z. c #969799",
"x. c #838287",
"c. c #A59A88",
"v. c #B09C8F",
"b. c #BB8696",
"n. c #BA8596",
"m. c #B49E90",
"M. c #B49092",
"N. c #ABA485",
"B. c #B5A88B",
"V. c #BBB594",
"C. c #BFBA99",
"Z. c #A7A9AD",
"A. c #B7ABA4",
"S. c #BAB7B4",
"D. c #C38C9D",
"F. c #C49893",
"G. c #C4AC84",
"H. c #C4BD9A",
"J. c #C4BB97",
"K. c #C2B38E",
"L. c #CB91A3",
"P. c #DA9CAD",
"I. c #D497A8",
"U. c #DB9EB3",
"Y. c #D4A9AC",
"T. c #E0A1B3",
"R. c #EEABBE",
"E. c #E4A4B9",
"W. c #F0ACBF",
"Q. c #CBC29D",
"!. c #D1C59F",
"~. c #CDC5A1",
"^. c #CFC8A5",
"/. c #D4CBA5",
"(. c #D4CCA8",
"). c #D6CAA5",
"_. c #DAD2AC",
"`. c #DED7B1",
"'. c #CDC9B5",
"]. c #E5DDB3",
"[. c #EDE5BC",
"{. c #E7E0B8",
"}. c #F4ECBF",
"|. c #ECAAC1",
" X c #F2AEC1",
".X c #F6B1C4",
"XX c #F8B2C6",
"oX c #FCB5C9",
"OX c #FFB8CC",
"+X c #C4C6C8",
"@X c #D0CECE",
"#X c #D7D5D5",
"$X c #D8D1CD",
"%X c #F6ECC1",
"&X c #F9EFC3",
"*X c #FDF2C5",
"=X c #FFF6C9",
"-X c #FFFACC",
";X c #F6F1C5",
":X c #EDE9C1",
">X c #DEDFE0",
",X c #E5E7E9",
"<X c #F2F4F4",
"1X c #FEFFFF",
"2X c #F7FBFD",
/* pixels */
"                                                                                                                        ",
"                                                                                                                        ",
"                                                                      O E ^ C                                           ",
"                          # d n U T V                                 ! 3.2.3.L                                         ",
"                        X b *.*.X.m :.^ V                     ;     $ ^ ! ! ^ 2.C                                       ",
"                        } P.|.|.E.L.%.m 3.! ,             V B > 5 : 5 5 N S F E ^ %                                     ",
"                      w  X.XW.W. X.X|.b.P 2.2.F       C E E N 5 : 3 E E ^ >.1.2.3.M                                     ",
"                      b.XXR.R.R.R.R.W.XXD.f 2.2.>.B E 3.1.>.<.>.^ >.E L L D D L ^ B                                     ",
"                      I..XR.R.R.R.W.R.R.XXf.x 1.<.1.^ ^ >.<.L D C ^ ~ E 2.>.^ E F 3                                     ",
"                      P..XR.R.R.R.R.R.R. XT.A ,.>.>.<.>.1.! S >.W ../ F 1.>.<.1.1.L , %                                 ",
"                      P..XR.R.R.R.R.R.R.R. X@.m 1.>.>.>.1.E I 3.i t p / >.>.>.<.=.( s.W ,                               ",
"                      D.XXR.R.R.R.R.R.R.R..Xn.k 2.>.<.>.<.^ ( Y c.Z.} _ u.>.<.>.<.,.y u / $                             ",
"                      &.XXR.R.R.R.R.W.R.R..XL.p 2.>.<.<.>.<.2.G ,X1X<XB.) u.>.>.,.Q +Xl.h u.                            ",
"                      0  X XR.R.W.R.R..XW.oXb.d 2.>.<.<.<.>.2.f ,X1X1X2Xt.` 1.u.c v.1X<X| ,.4                           ",
"                        L.XXR.R.R. Xb.L.R.P. .Y <.<.<.<.<.>.p.g @X1X2X1X#Xh u.u.l S.1X1XS.) A                           ",
"                        w XX XR.R. XT.$. .f U <.>.<.<.<.<.<.u._ m.1X1X1X1X%.:.i.l A.1X1X@Xl A                           ",
"                          n.XXR.W.R. XR.P.g.f <.>.>.>.>.>.>.>.2.h >X1X+X+XA.c i.) v.+X<X#Xs                             ",
"                            T.XXR.W.R.R.oXf.h 1.<.<.<.<.<.<.>.<.c m.1X9 . l.' <.,.... S.$Xr                             ",
"                            8 R.XXR.R.R..X@.x 1.^ ( ( ^ ^ >.<.<.-.i ,Xz.. < ,.>.2.6.. Z.H.=                             ",
"                              8 T.oX XR..Xn.d p.^ ( ! E E R E E / s c.'.q q.6.<.^ U 6 z...U                             ",
"                                  b.oX.XXXU.< 1.<.<.<.<.1.<.>.-./ E B /.*X*X].X x.z.9 [.K.u R M                         ",
"                                    #.P..XOXf.k 2.>.<.^ E G i i K ^ J C.}.&X%XQ.0.+ 9.-X/.t / E o                       ",
"                                        $.f.d.& <.1.>.1.j e.).G.| - 2 _.*X=X=X=X].(.[._.5.;.2.^                         ",
"                                                ; 1.1.2.c B.-X-XH.. . . +.c.9.1 N././.} ` 2.<.$                         ",
"                                                  $ ! 1.;.7.%X*X].O.o.7 . . . B.&X*X[...2.F %                           ",
"                                                      M R t V.-X=XF.j.k.o.. B.-X=X*Xe.t 4                               ",
"                                                    D L ! ! a V.{.}.b.h.[ 9.&X(./.+..                                   ",
"                                                B >.3.2.1.2.1.t 6 ~.;X(.).{.w.b b z H                                   ",
"                                            # E 2.1.<.>.>.>.<.<.] j r./.J.X.v <.2.p.3.D                                 ",
"                                          3 <.2.<.>.<.<.<.<.>.<.1.2.c g l ] p.K ! <.>.2.C                               ",
"                                        M 2.1.>.<.<.<.<.>.>.<.>.<.^ 8.<.p.1.] { V ^ <.<.2.5                             ",
"                                      B 2.1.>.<.<.>.>.<.<.<.>.1.c y.:X7.;.' 7.[.9.n 1.>.<.1.$                           ",
"                                    N 3.<.>.<.>.>.<.1.<.( ! <.;.5.[.-X(.g W `.-XH.g 2.>.>.2.^                           ",
"                                  5 2.<.>.>.>.<.2.3.~ D F ^ 2.n (.=X%X*X(.].*X*X(.j 2.>.<.>.2.L                         ",
"                                  <.1.>.>.1.2.2.I M ; ^ 1.2.v r.=X&X&X&X=X*X%X=X^.i p.>.<.<.>.2.Z                       ",
"                            3 S ~ 1.>.<.2.<.D 3     E 2.>.,.H {.*X&X&X&X%X%X%X=X/.@ 1.2.<.>.<.<.2.3                     ",
"                        3 E 2.3.<.>.<.<.D         L 2.>.p.g Q.=X%X&X&X&X&X&X&X=X(.    E 3.<.<.>.<.<.:                   ",
"                & >.>.^ >.<.<.>.>.<.^ ;         ! 2.>.u.c y.=X&X&X&X&X&X&X&X&X=X~.      D <.2.<.>.1.1.D 5               ",
"                  S L I ! >.2.2.<.1.~       5 >.2.>.1.' | %X*X&X&X&X&X&X&X&X%X-XH.          L 1.>.>.<.3.2.E D L E       ",
"                    L >.2.1.E E 1.2.1.5   C 2.1.>.>.1.P `.=X%X&X&X&X&X&X&X&X&X-XB.            : ^ <.>.>.1.<.! E ~ *     ",
"                    B F S       ; E 3.! : 2.<.>.>.p.g J.=X%X&X&X&X&X&X&X&X&X&X-X9.              =.1.2.3.3.<.! F 5 :     ",
"                                    5 C E <.>.>.1.l e.*X&X&X&X&X&X&X&X&X&X&X*X&X1             D 3.<.F D L E E ! E ,     ",
"        * M B S D E L L               ^ 2.>.<.<.;.{ [.*X&X&X&X&X&X&X&X&X&X%X=X~.              S L                       ",
"                    C F ! L D D   * N 2.>.<.>.2.h J.=X%X&X&X&X&X&X&X&X&X&X*X-Xe                                         ",
"                          B F ! 1.D L 1.>.<.>.2.j (.=X&X&X&X&X&X&X&X&X%X&X-XV.                                          ",
"                                  O >.<.>.<.>.2.g H.=X%X&X&X&X&X&X&X%X*X-X~..                                           ",
"                                  , 2.<.<.<.<.<.' q.;X*X%X%X%X%X%X&X=X%XN.i ,                                           ",
"                                  B 2.>.<.<.<.>.1.m y.%X=X=X=X=X=X&X^.| g 3.S                                           ",
"                                  L 1.>.<.<.<.<.>.1.` 6.G.Q./.~.K.q.j ' 2.1.L                                           ",
"                                  ^ 1.>.<.<.<.>.<.2.2.K y g z h l ' 2.1.>.<.^                                           ",
"                                > 2.<.<.<.>.<.2.2.F ,     H 2.a.p.<.>.<.<.<.2.3                                         ",
"                                F 2.>.>.>.1.2.L >             D 2.<.>.<.<.>.2.S                                         ",
"                                1.<.>.<.2.^ M                   N <.1.>.<.>.1.^                                         ",
"                          S S E 1.>.<.1.D                         # ^ 1.>.<.<.2.5                                       ",
"                    L ! >.3.3.<.>.<.>.N                               ^ <.>.<.<.^ E                                     ",
"                D <.>.=.<.<.<.<.<.2.2.O                               F 2.>.>.<.>.^ >.( N                               ",
"              $ 3.D E ! >.1.2.2.2.>.S                                 M 2.2.2.2.<.^ I E 4.L                             ",
"                $ $ ^ >.^ E L S N                                         B F L ! ( ^ : Z B                             ",
"                                                                                                                        ",
"                                                                                                                        "
};
