/* XPM */
static char *_c2810f28e524d7cde210bf06f286d2b5VpoNIZCxqvCwXsV[] = {
/* columns rows colors chars-per-pixel */
"60 60 156 2 ",
"   c None",
".  c black",
"X  c #00000A",
"o  c #041A1F",
"O  c #111E24",
"+  c #17272E",
"@  c #19262B",
"#  c #1E2A2F",
"$  c #142227",
"%  c #08273E",
"&  c #172932",
"*  c #222A2E",
"=  c #232E33",
"-  c #243037",
";  c #293337",
":  c #2C363C",
">  c #2E393E",
",  c #30393E",
"<  c #002C42",
"1  c #343D43",
"2  c #383F44",
"3  c #273D60",
"4  c #1C4550",
"5  c #3A4246",
"6  c #3D444A",
"7  c #3E484F",
"8  c #434A4E",
"9  c #574D4E",
"0  c #454D52",
"q  c #465056",
"w  c #4B5257",
"e  c #4D555B",
"r  c #45515B",
"t  c #51575C",
"y  c #53595E",
"u  c #496350",
"i  c #4F5860",
"p  c #545B61",
"a  c #595F63",
"s  c #5A6166",
"d  c #5D646A",
"f  c #62666B",
"g  c #646A6F",
"h  c #656C73",
"j  c #6A6E73",
"k  c #6B7076",
"l  c #6C747B",
"z  c #737476",
"x  c #72777C",
"c  c #74797D",
"v  c #787C7E",
"b  c #866967",
"n  c #8A7A7B",
"m  c #92905F",
"M  c #8C8C7E",
"N  c #AE857E",
"B  c #A3837E",
"V  c #9DAE6D",
"C  c #B0A468",
"Z  c #B9AC6E",
"A  c #637080",
"S  c #747B83",
"D  c #7A7E85",
"F  c #778087",
"G  c #7D8184",
"H  c #7C838B",
"J  c #72828B",
"K  c #7E8791",
"L  c #7B8D97",
"P  c #7B8799",
"I  c #7D8F99",
"U  c #828586",
"Y  c #82868B",
"T  c #83888E",
"R  c #898A8C",
"E  c #98898B",
"W  c #848B93",
"Q  c #898F95",
"!  c #878F98",
"~  c #888F98",
"^  c #938D91",
"/  c #8B9095",
"(  c #85939D",
")  c #8C939B",
"_  c #929396",
"`  c #989B96",
"'  c #91969C",
"]  c #96999B",
"[  c #9A9C9E",
"{  c #A08685",
"}  c #BF8F86",
"|  c #B38B85",
" . c #8E99A2",
".. c #9097A0",
"X. c #939AA3",
"o. c #999FA6",
"O. c #969FAA",
"+. c #989FA8",
"@. c #9EA1A5",
"#. c #9BA2AA",
"$. c #A2A4A6",
"%. c #A4A7A9",
"&. c #A6A9AC",
"*. c #AAACAD",
"=. c #B9A6A7",
"-. c #ADAFB1",
";. c #AEB0B2",
":. c #B3B5B6",
">. c #B5B7B8",
",. c #B5B8BA",
"<. c #BABBBC",
"1. c #C08F85",
"2. c #CA988E",
"3. c #CA958A",
"4. c #D0998E",
"5. c #CF9D94",
"6. c #D2A096",
"7. c #D9A297",
"8. c #D7A49A",
"9. c #D9A398",
"0. c #E2A99E",
"q. c #E6A99C",
"w. c #EBAFA2",
"e. c #F4B3A5",
"r. c #F8B5A7",
"t. c #F5B5A8",
"y. c #F9B7A9",
"u. c #F7B8AA",
"i. c #FDBAAC",
"p. c #FFBFB1",
"a. c #D2C384",
"s. c #ECD98A",
"d. c #FCE896",
"f. c #FFC1B2",
"g. c #FFF9A0",
"h. c #BCBEC0",
"j. c #BEC0C1",
"k. c #C3C4C5",
"l. c #C6C7C9",
"z. c #C7C8CA",
"x. c #CBCCCE",
"c. c #CDCFD0",
"v. c #CFD0D1",
"b. c #D2D3D4",
"n. c #D5D6D8",
"m. c #D7D8D9",
"M. c #DBDCDD",
"N. c #E4E5E5",
"B. c #E7E7E8",
"V. c #EBECEC",
"C. c #F3F4F4",
"Z. c #F7F7F8",
"A. c #F7F8F8",
"S. c white",
"D. c #FCFCFC",
"F. c #FEFEFE",
/* pixels */
"                                            S                                                                           ",
"                                    q s l #.c                                                                           ",
"                          ,     q p / #.#.T                                                                             ",
"                            2 e l l j X.+.8   p f j j f                                                                 ",
"                            p h d x j W H a ) #.O.( I L Q =.f                                                           ",
"                        O 0 d k H ' ) k H #.O.J n | 2.9.t.N                                                             ",
"                      p H W H S o.) W ) #.( z 3.r.i.i.f.0.                                                              ",
"                    S o.#.o.X.k ) X.X.o.( n q.p.i.y.r.f.N                                                               ",
"                  H T 1 6 Q ) H o.X.X. .E e.i.t.y.i.i.p.b                                                               ",
"                l W . q S Q W Q o.X.o.L 5.6.w.i.i.y.i.w.                                                                ",
"                H % C ` O.X.H / X.X.X. .^ D e.i.y.y.p.}                                                                 ",
"              / 3 Z d.W ..' ) X.X.X.X.X. .Y 7.i.y.i.p.b                                                                 ",
"              A m g.a.P o.X.X.X.X.X.X.X._ { 0.i.t.f.0.                                                                  ",
"              < V s.M ( X.X.X.X.X.X.X...^ 1.e.8.i.u.9                                                                   ",
"        [ <.k.[ u W ..o.o.o.X.X.X.X.X.X. .Q c B 4.9                                                                     ",
"        . j.S.z.h W H H W Q ' X.X.X.X.X.X.o. ._ 4                                                                       ",
"        v.S.S.@.W o.X.X.) Q W ) X.X.X.X.X.' Q H D                                                                       ",
"        $.S.S.b.r S S W X...X.X.X.X.X.X.o.) d                                                                           ",
"        j.V.S.S.v.[ Q ] W @.) X.X.X.X.X.X.S 0 @                                                                         ",
"        S.S.S.S.S.S.S.S.V.j.W o.X.X.X.o.l d H S a #                                                                     ",
"          [ B.S.S.S.S.S.S.*.W X.X.X.X.) S o.o.o.o./ a                                                     [ &.          ",
"            U M.A.S.S.S.h.K #.X.X.X.X.) ) X.X.X.X.o.o.T s                                             &.A.S.S.S.b.      ",
"                t x U U q l j W ' X.X.X.X.X.X.X.X.X.X.+.#.W k 5                                     x.S.S.S.S.B.B.[     ",
"                          @ H ) Q X.X.X.X.o.X.X.X.X.X.X.o.o.#.X.f                                 f m.S.S.Z.]           ",
"                        6 ..#.X.X.X.o.X.X.W X.X.X.X.X.X.X.X.X.o.#.k                             0 X.S >.V.]             ",
"                        / #.X.X.' Q ) o.Q [ T X.X.' o.o.X.X.X.X.o.D 6                           S #.) _ @.              ",
"                      l +.X.X.X.) H Q ! ' c.>.x ) S l T / X.X.X.#.l                           0 o.X.X.o.6               ",
"                    d o.X.X.X.X...Q z.) H l.n.%.S #.T p ! X.X.X.#.k                         . H #.X.o.S                 ",
"                  h o.X.X.X.X.o.#.l :.c.%.x.x.b.[ S #.S ) X.X.X.o.w                         p o.X.X.#.p                 ",
"                l O...X.X.o.#.H s   v n.b.x.x.x.b.[ S l o.X.X.+.F h H q                   > ) o.X.o.W                   ",
"              y X.o.X.X.o.o.g         ,.b.x.x.x.x.n.D H o.X.X.X.0 / #.o.H y o           = W o.X.X.o.s                   ",
"              t / o.X.o.X.y           p v.b.x.c.n.>.S o.X.X.#.s k o.X.o.o.o.W s =   , e W +.X.X.o./ $                   ",
"              0 o.X.X.o.h               c b.n.k.:.T X.o.X.o.i s #.X.X.X.X.X.o.o./ d + W #.' X.X.o.p                     ",
"              t o.X.o.X.6                 U -.;.M.o.l ) X.h _ o.H ) o.X.X.X.X.X.o.o.S > W o.' #.H X                     ",
"              0 o.X.o.)                     *.S.S.C.z.@.S :.n.x.:.T F X.o.X.X.X.X.X.#.H 1 / #./ >                       ",
"                W o.o.W         Y     w   :.S.S.S.S.S.M.-.n.x.x.b.x.%.x W o.X.X.X.X.X.#.H p ' 0                         ",
"                l #./ @.o.    C.S.  v.S.N.S.S.S.S.S.S.V.h.c.x.x.x.x.b.k.Y H o.X.X.X.X.X.#.x :                           ",
"                g &.H M.S.V.A.S.V.  n.S.S.B.Z.S.S.S.S.V.*.b.x.x.x.x.x.b.v.Y W o.X.X.X.X.X.X.6                           ",
"                z.B.N.A.S.S.S.B.R     j.%.U S.S.S.S.S.B.%.b.x.x.x.x.x.x.c.z.c X.X.X.X.X.X.o.W                           ",
"              ] S.S.S.S.S.Z.U             :.S.S.S.S.S.M.@.n.x.x.x.x.x.x.x.b.*.H o.X.X.X.X.X.o.H                         ",
"              Z.S.S.S.S.S./               l.S.C.S.S.S.M.%.c.x.x.x.x.x.x.x.c.l.T X.X.X.X.X.X.X.o.W ;                     ",
"            :.S.S.S.S.S.x.                M.S.M.S.C.S.A.x.<.b.x.x.x.x.x.x.x.c._ ) X.X.X.X.X.X.X.#./ 5                   ",
"            S.Z.S.S.S.S.                  B.S.:.B.B.C.S.k.k.v.x.x.x.c.c.x.c.c._ ) X.X.X.X.X.X.X.X.+.) 0                 ",
"          ;.S.b.S.V.S.b.                  M.S.*.j *._ *._ b.x.x.x.x.x.x.x.x.x./ ) X.X.X.X.X.X.X.X.X.o.X.q               ",
"          v.S.x.A.m.S.<.                  ;.S.c.S / / W W @.b.v.x.v.v.b.v.b.l.T o.X.X.X.X.X.X.X.X.X.X.o.X.q             ",
"          n.S.k.B.b.S.*.                H S C.v.H @.o.o.o.~ o.z.b.x.x.z.l.c.&.W #.+.+.o.o.X.X.X.X.X.X.X.#.) ;           ",
"          z.S.U M.n.S.@.              H #./ T T ) X.X.o.#.X.k t j t 8 5 5 6 1 0 p g S W #.#.o.X.X.X.X.X.X.#.f           ",
"          ] k.  o.M.S.[             j #.X.o...X...X.o.W d =                             d H ) X.X.X.X.X.o.X.d           ",
"                  l.S.]             x o.o.' X.X.X.X./ e                                     H o.X.X.X.o.#.g             ",
"                  ] S.v               h #.#.X.X.X.' o.S                                   e o.o.X.X.#.X.d     f z       ",
"                    t           a / f   e W o.o.X.X.X.o.y                                 D o.X.X.o.W e *   z.S.Z.$.    ",
"                                B.S.S.k.t f j H o.X.o.#./ .                             7 o.o.) X.H $.N.V.C.S.N.x.l.c   ",
"                              y *.*.M.S.A.A.B.*.S H W l ] h.=                         z ;.j S @.W h.S.S.S.S.Z.Z.S.S.S.G ",
"                            > n.S.S.A.S.S.S.S.S.M.N.c.<.B.S.%.                        M.Z.&.x.C.z.S.S.S.S.S.S.V.N.A.S.:.",
"                            :.S.S.B.b.B.S.S.S.S.S.S.S.S.S.S.B..                     8 S.S.S.S.S.S.S.S.S.S.S.C.B.M.<.S.U ",
"                            b.S.b.&.B.B.A.S.S.S.S.S.S.S.A.S.A.-                     . N.S.S.A.S.S.S.S.S.S.S.S.S.S.b.j   ",
"                            <.S.o.S.S.S.S.S.S.S.S.S.S.S.S.S.l.                        8 M.S.S.S.S.S.S.S.S.S.S.S.S.C.    ",
"                              x k.S.A.S.S.S.S.S.S.S.S.S.B.[ .                           . G x.B.A.S.S.S.V.S.S.S.S.]     ",
"                                ] S.S.S.S.S.S.S.Z.M.:.G .                                   . . w g x k & k U Y a       ",
"                                  G %.$.[     v                                                                         "
};
