/* XPM */
static char *_728db7f072f434a807e406487709676owU3NwR844dYozWU[] = {
/* columns rows colors chars-per-pixel */
"60 60 150 2 ",
"   c None",
".  c #000000",
"X  c #080709",
"o  c #0A0B0A",
"O  c #151414",
"+  c #1D1D1D",
"@  c #00023A",
"#  c #002C36",
"$  c #212223",
"%  c #2C2C2C",
"&  c #353535",
"*  c #383837",
"=  c #3B3B3A",
"-  c #6B6A3B",
";  c #444443",
":  c #494946",
">  c #4C4C4C",
",  c #50504F",
"<  c #555554",
"1  c #5C5C5B",
"2  c #7C5B4D",
"3  c #605F5D",
"4  c #60605F",
"5  c #586472",
"6  c #636362",
"7  c #686867",
"8  c #6D6D6C",
"9  c #6F706E",
"0  c #70716F",
"q  c #7B7B6B",
"w  c #6D6D73",
"e  c #6B787A",
"r  c #747473",
"t  c #777977",
"y  c #787877",
"u  c #7C7C7B",
"i  c #74737A",
"p  c #907468",
"a  c #917C72",
"s  c #A97E6A",
"d  c #699500",
"f  c #7F807F",
"g  c #898839",
"h  c #9BB73D",
"j  c #A6BD3D",
"k  c #ABBD32",
"l  c #808062",
"z  c #80807E",
"x  c #928F7A",
"c  c #9B857C",
"v  c #B58168",
"b  c #AB8677",
"n  c #B58976",
"m  c #BE8E7A",
"M  c #A8A86B",
"N  c #DEDB6F",
"B  c #DBDB76",
"V  c #E7E76F",
"C  c #EDEC78",
"Z  c #FFFE7B",
"A  c #758385",
"S  c #838482",
"D  c #878886",
"F  c #888887",
"G  c #858589",
"H  c #88878B",
"J  c #8C8C8B",
"K  c #968B86",
"L  c #908F8C",
"P  c #90918F",
"I  c #878891",
"U  c #898994",
"Y  c #8D9394",
"T  c #949493",
"R  c #939897",
"E  c #999997",
"W  c #909098",
"Q  c #9C9C9A",
"!  c #A98F85",
"~  c #AF968C",
"^  c #B89484",
"/  c #A29996",
"(  c #B69F96",
")  c #9FA09E",
"_  c #A2A28B",
"`  c #A1A19E",
"'  c #B5A39C",
"]  c #B7B89D",
"[  c #B4BE92",
"{  c #9CA1A0",
"}  c #A4A4A3",
"|  c #A7A8A5",
" . c #A9A9A7",
".. c #A6AAAA",
"X. c #ABACA9",
"o. c #B0AFAB",
"O. c #AFB0AD",
"+. c #B1B1AE",
"@. c #B4B4B2",
"#. c #B9B8B5",
"$. c #BCBCBB",
"%. c #BBB3B1",
"&. c #CE9B85",
"*. c #CEA28F",
"=. c #DCA389",
"-. c #E0A488",
";. c #E6AB90",
":. c #E2B29E",
">. c #C1BEA6",
",. c #CDBCB6",
"<. c #C6BEBA",
"1. c #F0B9A1",
"2. c #FFBDA0",
"3. c #FFFF8A",
"4. c #C3C2BE",
"5. c #DBC0B6",
"6. c #FFC2A7",
"7. c #FFC7AC",
"8. c #FFC8AD",
"9. c #FFCDB4",
"0. c #BEC0C2",
"q. c #C4C4C3",
"w. c #CAC7C6",
"e. c #CACAC7",
"r. c #CDCCCB",
"t. c #D0CECD",
"y. c #CDD2C9",
"u. c #D3D2CD",
"i. c #D4D4D3",
"p. c #D6DBDD",
"a. c #DBDBDB",
"s. c #DAD9D4",
"d. c #E4E3DE",
"f. c #EBE9DC",
"g. c #E5E5E4",
"h. c #E8E7E2",
"j. c #EBE9E5",
"k. c #ECEBEB",
"l. c #E4E9EA",
"z. c #F6F5EE",
"x. c #ECEFF0",
"c. c #F4F4F4",
"v. c #F8F7F1",
"b. c #FBF9F3",
"n. c #F3F7F8",
"m. c #F9F9F9",
"M. c white",
"N. c #FEFEFE",
"B. c #FCFDFD",
"V. c #FEFEFE",
/* pixels */
"                      u r                                                                                               ",
"                      u +.6                             n v &.                                                          ",
"                        J #.r                   . Q r.%.b ,./ .                                                         ",
"                        r +. .1                 k.M.m.#.x.M.M.X.                                                        ",
"                        R @.} z O             Q M.x.@.m.M.j.m.M.8                                                       ",
"          u } S       $ u z J ` 1 >         u Q Y s ' l.a.@.c.M.X.                                                      ",
"        i.M.M.M.#.    1 ) u : 7 8 8 r     F @...c 7.;.<.M.c.a.q.a.c.X.                                                  ",
"    q.#.M.m.k.M.M.u   6 T u r r } X.} r R +.X.` 1.9.6.5.M.m.$.M.M.M.M.=                                                 ",
"  g.M.c.$.i.r.a.M.i.  1 J Q  .} T ` X.X.X.X.| a -.6.2.~ M.c.q.k.a.x.c.&                                                 ",
"  a.a.#.X.M.M.i.c.#.r X.X.X.} T T u ` X.X.` u 0.$.( ^ i.M.M.c.g.m.M.q.                                                  ",
"          a.a.i.i < #. .X. .J } #.R J X.X.S g.M.M.M.n.M.M.k.i.M.M.M.J                                                   ",
"  } i.q.r.$.c.M.] q X.+.R @ . % Q Q T X.X.R r.i.w.k.M.M.c.X.c.M.M.a.                                                    ",
"@.M.M.M.M.a.q.i.N _ @.H . g J Q ` } } X.X. .L A p =.t.M.c.a.M.M.m.#.                                                    ",
"} #.Q } g.M.m.y.k x I - V C Q @.X.X.X.X. .o.R ! :.8.m p.M.M.M.i.} R J +                                                 ",
"        J g.$.{ d >.5 j 3.B W  . .X. .X. .X.} K *.^ 2   Q q.r.Q Q X.X.| r &                                             ",
"        4 S u G [ f.0.h Z M U X.X.X.X.X.X. .X...e # .       . u @.X. .X.+.X.u .                                         ",
"        t J i.J H #.m.h.l r E R Q ` | X.X.X.X.} E L 3           D +. .X. .X.@.` ;                                       ",
"        . 1 c.k.#.c.M.a.w X.} } } }  .X.X.X. .O.X.J S %         . } +. .X. . .+.} ; *                                   ",
"          a.g.i.m.M.M.c.S r T ` } X.X.X.X. .X.} > . ; < <     8 1 6 X.X. .X.X. .X.E 1                         $.h.      ",
"          i.c.c.c.M.M.M.c.#.} X.X.Q } X. .X.} < J X.+.X.X.X.X.+.@.u 9 X.X.X.X.X.} +.Q                       Q M.q.      ",
"              } M.M.M.M.M.M.M.M.i.E X.X.X.} > J @.X.X.X.X.X.X.X.X.O.J t Q  . . .X.@.u                     ; m.M.q.      ",
"                R k.M.M.M.M.M.g.J X.X. .X.} 0 } X. .X.X.X.X.X.X. .| X.} Q X.+.@.X.r                       Q M.M.a.      ",
"                . 6 Q q.i.g.a.S T Q X.X.X.X.J } X.X.X.X.X.X. .X.X.+.O.+.X.} E u *                         X.M.M.M.T     ",
"                >  .Q z u S u J P u E X. .X.}  .X. .X.X.X.X.X.} Q J r 1 ; % .                             < a.k.m.i.    ",
"                1 E @.X.O.X.+.+.X.X.Q } X. .X. .} X.X. .X.Q F u X                                           u t Q } &   ",
"                  r X.+.X.X.X.X.X. .X. . .X. .} X.Q X.X. .` } @.u                                           z X.Q J 7   ",
"                    : u Q X.+.@.@.@.+.X.T ) ` $.V.e.P X.X.X.X.X.X.6                                         8 @.X.@.S . ",
"                          * < 7 t F R } +.q.u #.b.V.u.S X. . . .X.X.6 .                                     1 X. .+.T . ",
"                                        J b.$.e.b.z.V.q.S +. .X. .X.X.S .                                   1 X. .X.Q . ",
"                                          h.M.v.b.b.v.V.#.T +. .X. .X.+.Q 6 .                               t +.| X.Q o ",
"                                          } M.b.b.b.b.b.b. .Q +. .X.X. .X.O.Q t * .                       . Q +.} X.E . ",
"                                          . d.M.z.b.b.v.b.z.` Q +.X. .X. . .X.+.} P 6 O .               . u +. .| +.T . ",
"                                            1 v.V.z.b.b.v.b.z.+.E X.X. . . . . .X.+.O.) u = .         . r X.X. . .@.t . ",
"                                              8 b.M.v.b.b.v.b.b.e.P E X.X. . .X.X. . .X.+.X.S & . 1 u E +.X.X. .X.} &   ",
"                                                1 h.M.b.b.b.v.b.V.j.@.J E O.X. .X.X.X. . .X.+. .1 * X.@. .X. .X.+.8     ",
"                                                    +.v.b.b.b.b.v.b.V.j.+.S } +. .X.X.X.X. . .X.+.1 < X. .X.+.X.8 .     ",
"                                                      q.M.b.b.b.b.b.v.b.V.a.P T +.X.X.X.X.X.X. .X. .* Q #.X.R ;         ",
"                                                        e.M.v.b.b.b.b.v.v.V.b.o.J X. .X.X.X.X.X. .+.r 8 P > .           ",
"                                                        . d.M.z.b.b.b.b.b.v.b.V.4.f } X. .X.X.X. .+.J . .               ",
"                                                          * k.M.z.b.b.b.b.b.v.b.V.o.T +. .X.X.X. .+.R .                 ",
"                                                            % h.M.z.b.b.b.b.b.v.b.$.T +. .X.X.X. .+.T .                 ",
"                                                          < u > u.M.b.z.b.b.b.b.z.F } X. .X.X.X. .@.S .                 ",
"                                                      & S X.#.Q $ X.b.V.v.v.v.V.e.8 @. .X.X.X. .X.X.6                   ",
"                                                  . u  .+.X. .+. .: 7 i.V.V.b.b.S T +. .X.X.X. .X.} %                   ",
"                                                $ Q @.X. .X.X. .X.@.S = L s.V.j.6 O. .X.X.X.X. .+.r                     ",
"                                                Q @. . .X.X.X.X. .X.#.@.r . S J S +. .X.X.X.X.X.} f r                   ",
"                                              6 J X.X.X.X.X.X.X.X. .J 1 :     . } X. .X. . .X.X.Q } @.} T t R T .       ",
"                                                . Q +.| X.X.X.X.Q 8           ;  .X.X.X.X. . .X.X.X.X.X.+.J g.M.c.8     ",
"                                                  , X.+. .X.X.} ` T           . } @. . . . . . . . .X.X.X.R $.m.M.k..   ",
"                                                    > } +. . . .+.X.;           r Q X.+.+.X.X.+.+.+.@.@.P q.M.M.M.M.7   ",
"                                                      * T @.X.X.X.+.S             . 1 J Q } } Q J r 8 : #.M.M.M.M.M.u   ",
"                                                          , Q ` ` X.R O                 . + + .         a.M.M.M.M.M.u   ",
"                                            J @.#.X.} X.#.} J @.} R #.g.&                               a.M.M.M.M.M.7   ",
"                                            i.w.i.g.M.M.M.M.M.M.m.c.c.M.q.                            X.M.M.M.M.M.c.*   ",
"                                          r a.M.c.a.k.M.M.M.M.M.M.M.M.M.m..                     1 q.$.g.M.M.M.M.M.a.    ",
"                                          } M.c.$.a.a.k.M.M.M.M.M.M.M.M.w.                    8 c.#.q.k.c.g.c.M.M.#.    ",
"                                          R M.w.c.M.M.M.M.M.M.M.M.M.k.R .                     #.i.r.M.k.#.k.M.M.c.      ",
"                                            S J M.M.M.M.M.M.M.M.a.T .                           Q M.M.X.c.M.M.M.r.      ",
"                                                } k.k.g.a.q.Q <                                   r.M.} c.M.M.c.<       ",
"                                                                                                        r X.Q %         "
};
