/* XPM */
static char *_75485fcafbe4e2fd8b72f78fb17b74ezoFAICIEWcGjuUyZ[] = {
/* columns rows colors chars-per-pixel */
"60 60 190 2 ",
"   c #552301",
".  c #592A0C",
"X  c #663107",
"o  c #66320C",
"O  c #69340C",
"+  c #693510",
"@  c #6E3A13",
"#  c #6A3C1C",
"$  c #633514",
"%  c #703B11",
"&  c #733F18",
"*  c #6E3F23",
"=  c #754016",
"-  c #76421E",
";  c #7A411D",
":  c #7C491E",
">  c #6F4125",
",  c #744223",
"<  c #794524",
"1  c #7F4C26",
"2  c #74462B",
"3  c #79472C",
"4  c #76492E",
"5  c #7B4B2D",
"6  c #7D4E31",
"7  c #7E5133",
"8  c #824C23",
"9  c #834D2B",
"0  c #875027",
"q  c #87512D",
"w  c #8B552C",
"e  c #8E582F",
"r  c #92552D",
"t  c #97582C",
"y  c #824F32",
"u  c #845334",
"i  c #8B5534",
"p  c #8D5936",
"a  c #845639",
"s  c #89563A",
"d  c #865839",
"f  c #8C5B3B",
"g  c #935B34",
"h  c #995D34",
"j  c #90573A",
"k  c #945D3B",
"l  c #9A5E3A",
"z  c #8E603F",
"x  c #966037",
"c  c #9C6136",
"v  c #94613D",
"b  c #9B633C",
"n  c #9F693F",
"m  c #A16236",
"M  c #A2653B",
"N  c #A5693D",
"B  c #AA6C3D",
"V  c #AF733F",
"C  c #8E5E41",
"Z  c #945E40",
"A  c #8E6142",
"S  c #946243",
"D  c #9B6544",
"F  c #9D6943",
"G  c #9D6A4A",
"H  c #9F7151",
"J  c #A16741",
"K  c #A46B43",
"L  c #AB6D44",
"P  c #A06749",
"I  c #A36D4B",
"U  c #AA6E49",
"Y  c #B26F46",
"T  c #A57046",
"R  c #AC7245",
"E  c #A5714A",
"W  c #AB734B",
"Q  c #AE794E",
"!  c #B27445",
"~  c #B47946",
"^  c #BB7B47",
"/  c #B3754B",
"(  c #BA774D",
")  c #B47A4C",
"_  c #BB7C4C",
"`  c #A67252",
"'  c #AB7552",
"]  c #AE7A53",
"[  c #AC7B5A",
"{  c #B27651",
"}  c #B37B53",
"|  c #BB7D52",
" . c #B37E5A",
".. c #BA7E59",
"X. c #C17E4D",
"o. c #C17F53",
"O. c #BD814E",
"+. c #B68156",
"@. c #BD8253",
"#. c #B5815B",
"$. c #BC845C",
"%. c #BD885C",
"&. c #BC8661",
"*. c #BD8962",
"=. c #C1834E",
"-. c #C38454",
";. c #C98556",
":. c #C48956",
">. c #CB8C56",
",. c #C4855A",
"<. c #C98659",
"1. c #C58A5C",
"2. c #CB8C5C",
"3. c #D18E5E",
"4. c #CD915E",
"5. c #D1925E",
"6. c #C58761",
"7. c #C48C63",
"8. c #CB8D62",
"9. c #C58E6A",
"0. c #CD8F69",
"q. c #D28E61",
"w. c #C69063",
"e. c #CD9263",
"r. c #CE9967",
"t. c #C59069",
"y. c #CC936B",
"u. c #CE996A",
"i. c #D39364",
"p. c #D99666",
"a. c #D49866",
"s. c #D99B67",
"d. c #D3956A",
"f. c #DA976A",
"g. c #D59A6B",
"h. c #DB9B6C",
"j. c #CF9871",
"k. c #CE9371",
"l. c #D59C72",
"z. c #DC9E72",
"x. c #E19F6F",
"c. c #E19E71",
"v. c #D5A06E",
"b. c #DDA06E",
"n. c #D7A173",
"m. c #DDA576",
"M. c #DCA273",
"N. c #DEA779",
"B. c #DEA37A",
"V. c #DFA97D",
"C. c #DEA87C",
"Z. c #E2A36F",
"A. c #E3A474",
"S. c #E9A777",
"D. c #E6A876",
"F. c #E4A67A",
"G. c #E8A578",
"H. c #E1A97A",
"J. c #E2AC7E",
"K. c #E5AD7E",
"L. c #E5AA7B",
"P. c #EBAB7C",
"I. c #E9AA77",
"U. c #EDB07F",
"Y. c #F0B27F",
"T. c #E6AF80",
"R. c #E5AC82",
"E. c #ECAE81",
"W. c #E7B183",
"Q. c #E7B283",
"!. c #E8B284",
"~. c #EDB586",
"^. c #EEB585",
"/. c #EDB283",
"(. c #EDB689",
"). c #F2B484",
"_. c #F3B887",
"`. c #F5B789",
"'. c #F2BA8A",
"]. c #F3BB8C",
"[. c #F6BB8C",
"{. c #FABC8D",
"}. c #F7BF90",
"|. c #FEBE92",
" X c #F6C18F",
".X c #F8C08F",
"XX c #F7C290",
"oX c #FDC393",
"OX c #FFC997",
"+X c #FFCB9A",
/* pixels */
"n b b J W } ) / @.R R ~ V V -.4._ @.:.2.2.:.@._ :.1.e.a.g.a.e.e.e.4.1.:.:.1.e.g.2.1.O.-.a.w.@.-.e.4.:.@.O.O.@.@.) ) ) ) ",
" .#.$.$.$.$.$.,.7.1.g.M.g.a.s.g.g.g.M.A.A.M.M.b.r.a.M.L.~._._./.K.U.U.M.r.2.i.b.g.h.g.g.M.g.a.g.@.@.) ~ R R R R / / / / ",
"} #.&.$. .} #.%.Q ) 1.w.:.1.e.1.g.v.N.K.'..XoXOX]._.'.[.oXoX[./.~.'.}.'./.K.~.'.L.m.B.M.l.M.m.M.a.r.r.w.1.%.@.+.} } ) ) ",
"]  .$.$.$.$.*.w.+.1.y.r.w.v.L.M.g.g.g.M.m.L.K.T.XX].~.~.~.K.l.w.T.K.L.K.K.K.L.m.K.g.a.a.a.M.n.w.r.r.r.r.w.%.+.} { } { } ",
"[ [ [ #.*.7.7.7.t.l.V.H.m.J.W.m.(.(.!.!.W.W.!.!.!.W.W.!.!.T.n.g.J.N.m.B.J.J.B.l.J.g.r.g.u.l.l.7.%.%.%.%.+.] W T W W W W ",
"' ` E ` [ #. .] *.7.y.y.%.1.t.1.l.n.n.n.n.n.n.n.l.m.V.J.V.m.n.g.V.N.B.m.n.n.n.m.n.r.u.n.g.7.7.7.$.$.$.#.+.] W W T T T T ",
"d d f v D G G G E F W Q T T Q Q ] } +.+.#.} ] Q E } $.$.} W W Q %.+.] T K K K K W K K } +.b e n v v x g p g g g k k k k ",
"  . $ # # , 5 i     & w q : : : @ = 8 w g x g g e n Q Q J b n T g 8 = = 8 w w 8 8 @ O 8 g %   X @ @ O o o + @ @ - - , , ",
"6 C S d S f [ [ i - b t.*.] ] Q W {  .9.%.l.l.7.$.%.V.R.y.l.+.l.y.$.{ K y.%.E  . .{ g Q 9.T r w W #.E E F F p v *.E S D ",
"6 C S d S f [ [ v 1 F t.*.W W W Q } $.y.7.n.d.1.6.7.R.!.l.n.%.n.d.+...) y.+.L 7.K T h } 8.K g b Q } K T F K b K *.} I I ",
"u S S f S v #. .I i K 7.$.T E E } @.1.g.t.n.d.$.8.t.~.(.z.F.7.H.l.$.,.@.l.@.W d.K R K 1.g.K h L $.+.W Q n T J K %.$.{ T ",
"a D G S G D *.&.W g T 9.$.E Q / @.1.e.n.d.B.f.$.g.g.`.[.F.T.i.~.M.8.8.@.z.1.| d.| $.| z.L.) M R w.1.@.:.N R M c ..@. .K ",
"f I I D ` I t.9.W g E y.7.} +.@.8.e.f.A.f.F.f.1.z.M.{.|.L.~.g.`.A.g.i.| z.z.2.8.,.2.| M.~.<.L / e.2.1.i.~ ~ N c @.:.@.R ",
"j I ` I ' W y.y.W g / l.y.,.1.2.i.g.f.A.f.P.A.i.F.A.|.oXP._.z.{.F.z.f.( A.A.8.2.( <.| p.P.8.| _ 2.4.>.i.=.=.~ V 4.2.-._ ",
"p G I D ` W y.y.{ b ..H.z.8.8.8.f.h.f.A.f.P.P.h.G.A.|.|.P.).c.|.A.h.h.-.c.x.2.i.! 2.<.i.A.2.;.:.5.a.>.4.=.>.O.=.p.2.O._ ",
"i D J b I I 9.9.} J ,.E.F.e.8.2.h.h.p.A.p.P.P.A.P.A.{.oXP._.M.|.A.h.h.2.A.p.2.h._ A.h.h.x.2.2.2.b.Z.>.:.O.=.^ >.s.-.! ^ ",
"k J W U { { l.8.} h / F.F.e.8.<.i.f.i.i.2././.M.M.m.XXoXM.~.~.[.P.h.p.:.A.p.:.A._ p.p.A.h._ ;.h.D.Y.i.i.O.=.-._ p.-.! ! ",
"b K E U { } B.d./ M | F.z.8.8.8.d.g.i.g.e.K.K.M.M.m.XXoXv./.!.[.L.p.5.-.A.i.:.h._ i.i.A.A.-.:.p.A.P.i.a.-.-.-._ A.2._ _ ",
"J I U K { ..H.z.U L 1.F.i.8.f.i.i.e.e.M.a.K.m.g.M.M.XXoXv.J.W.[.D.i.2.-.A.i.:.h._ 2.2.A.A.:.:.2.A.P.i.s.2.-.@._ A.2._ _ ",
"b J K K } ..B.d.U U 7.l.8.i.f.8.e.2.e.A.g.L.M.a.M.M. XOXg.m.J.[.P.2.2.-.A.p.2.h._ 2.:.A.P.2.-.:.A.A.2.h.2.-.=._ b.2.) ) ",
"g b K U ....l.,.W L ,.y.8.d.f.-.8.2.e.F.h.A.g.e.M.M. XOXg.v.m.[./.2.2.2.A.h.p.h.-.2.:.A.P.2.:.:.A.D.2.p.2.:.-.) h.2.) ~ ",
"g b K W ....d.} L J | 8.8.d.f.( 8.e.i.A.f.A.g.2.M.v. X+Xg.r.n.[.).2.2.2.A.A.h.h.:.2.2.A.P.3.2.2.A.P.2.2.-.2.2.) A.2._ _ ",
"J J K E ....d.} M l | i.8.8.8.( 8.i.i.h.e.A.h.1.M.g. X+Xa.e.g.[.).:.2.2.A.A.h.h.2.i.2.A.P.2.2.p.A.P.2.O.) i.i.) b.2.) ) ",
"W E U U ....j...h h | d.8.,.<.( 8.g.p.f.2.A.z.:.M.g.[.+Xr.w.a.[.U.-.-.:.A.A.h.p.2.p.i.A.P.2.2.h.A.).2.~ ! i.a.) a.-.! ! ",
"D { E Q ..W l.6.M K ,.z.i.@./ L <.i.2.8.i.P.M.8.M.M.{.oXa.g.M._.A.2.2.:.A.h.h.).p.A.5.A.P.2.i.2.A._.a._ ! 2._ ! a.:.~ ~ ",
"b { E W ../ l.7.l M | 8.<.| ! N <.8.2.i.p.K.z.e.A.M.XXoXa.h.M.'.P.2.5.:.h.h.h.).p.A.2.Z.P.i.i.;.P.U.i.:._ 2.) _ b.2.@._ ",
"l W U U ..} l.8.h J | <.| | ) N <.2.<.h.f.P.f.i.A.M.{.oXa.g.M._.P.i.i.2.h.p.p.P.i.h.-.h.P.p.p.:.).P.4.4.:.:.) :.A.i.-.-.",
"g U U K ....l.y.M / <.8.,.<.<./ 2.2.<.h.z.P.g.i.z.h.`.oXr.a.h./.).p.p.<.h.i.i.P.2.i._ h.).h.h.:.).P.i.4.2.2._ 2.b.2.@._ ",
"g U U J ....y.d.K } 8.i.8.8.8.| 2.2.<.h.z.P.h.p.h.g._.{.8.i.a.K.).p.p.<.h.i.2.A.2.i._ h.).x.h.:.P.).g.:.-.p.:.-.b.2.@._ ",
"g U E n ....7.y.J W 8.d.8.8.8.| 8.q.<.p.h.P.z.f.g.f._.{.2.i.a.K.).p.p.:.h.i.2.P.2.p.:.A.`.h.h.2.M.`.s.-._ h.2._ A.i.-.-.",
"g W Q b ....%.y.M L <.z.d.8.<.| q.i.<.2.i.P.A.h.h.h.`.oXi.g.h./.U.p.i.:.h.i.i.P.2.h.2.P.[.h.h.2.h._.h._ ~ h.2._ A.e.-.@.",
"l Q { b ......8.M L 1.F.z.8.<.-.q.f.2.:.2.P.F.f.A.M.{.oXf.h.M.`.P.i.i.:.h.i.i.P.2.A.p.).{.h.h.i.s./.p._ ~ p.2._ f.2._ ~ ",
"k I P J %.} 7.1.N m | A.z.<.( / <.8.<.e.e.L.A.M.h.A.oX`.e.M.i.L.P.x.p.2.p.2.p.S.h.h.p.P.[.h.2.i.p.A.i.-.| i.@._ M.,.-.R ",
"k P J J %.{ 7.2.M m | z.f.o./ Y 2.e.2.i.i.L.M.f.f.h.oX`.e.M.i.P.p.i.i.3.A.2.2.i.h.p.4.U.).4.-.-.h.A.2.<._ 2.-.( h.-.@.R ",
"k P D J $.{ 7.1.m m -.f.q.( Y L -.2.2.g.g.K.A.f.i.g.{.`.i.M.i.E.h.i.p.p.P.p.3.2.-.~ O.P.U.2.:.-.A.F.:.8._ | ,./ d.| +.Q ",
"j D D P $.{ 7.1.m N ,.f.8.( / L ( :.2.h.f.P.A.h.e.i.`.`.i.h.i.).P.f.q.2.A.p.p.p.! N ~ P.P.2.2.:.P.A.@.i.( ! :.! 8.) | R ",
"s D D D $.{ 7.7.M N <.g.8.o.| Y | 2.2.g.p.F.h.e.e.8._.`.i.h.2.).S.i.;.X.p.3.i.p._ ! -./.K.2.2._ P.A.| e.) ! :.! 1.R ) R ",
"i S Z D $.} 8.8.M N | i.8.2.o.! 2.i.2.i.2.f.2.-.i.2.).`.i.i.:.E.A.p.3.;.x.3.3.p.-.-.2.P.K.i.2.O.A.A.@.<./ ) ,./ @.L Q L ",
"u S Z D $.{ 8.8.M M ! <.8.i.<.Y <.2.-.2.-.i.2.-.f.2.).`.e.e.-.P.x.f.f.i.A.i.i.h._ 2.2.b.P.h.i.-.z.F.,._ ! -.@.| ..K W K ",
"u Z Z D $.{ 9.7.c h L @.8.i.6.L ) @.~ -.-.g.i.i.g.8.).`.e.2.| P.p.p.i.2.h.;.2.p.2.A.p.h.A.i.:.! f.F.:.! R 2.+.@.} N R N ",
"s Z f G ' } 9.7.b b L / 0.| ! L | ) -.i._ p.h.2.2.g._.`.:._ _ P.S.i.3.2.h.2.i.3.-.2.i.A.i.2.i._ M.L.@.| / R L R } g g e ",
"i Z f G ` ] 9.7.c b L / 0...! L / / @.e.( i.f.-.i.i._.{.-.( -.F.P.i.i.2.p.2.i.p.-.:.:.h.4.:.2.! A.M.| @.) ) / W 1.M n x ",
"u f s D E ' 6.*.h c R ) y.| U U R ! @.e._ e.8._ i.2./.{.| ) :.A.S.i.3.;.i.2.p.h.2.2.2.h.h.2.2.! F.g.) @.) ..+.R 8.K J n ",
"y s u S I W &.%.g c W } y.} U L L ~ -.i.-.i.2.( e.i.P./.-.( _ A.A.3.2.o.2.:.p.x.2.2.:.g.b.a.i.~ M.8.L | Q +.@.K 6.n F n ",
"5 a y k G I $.$.r l / ..y.{ U U ! | -.i.:.i.2._ 2.f.A.A.:._ ! F.p.;.;._ ;.-.p.A.) -.) 2.h.i.2.~ g.,.M / K )  .n *.n n b ",
"3 y 5 f D K  . .w l { ..y.{ U U / -.-.8.:.i.<.@.2.h.h.h.-.( R A.3.-.;.X.<.-.p.A.) ;.@.e.b.i.2.@.e.,.M R N Q W n 9.J F b ",
"2 6 3 d D G } } 9 h } @.0./ L L / -.@.<.@.2.-.@.i.2.h.A.) ~ ( h.2.;.3.;.5.;.h.S.-.p.2.g.A.e.:.@.2.8.K R K K K J t.K J b ",
"2 6 3 s S D } ] 9 l } $.0./ K U / -.( | ( :.| | h.| h.P.B ! <.p.2.;.5.3.p.2.x.P._ a.8.i.h.-.) / 1.d.R W K K J T 6.F F b ",
"4 4 4 u S G ` ` i 9 D  .y.' J l ! <./ | @.8.| | e.-.E.z./ ( | h.3.>.i.X.Z.5.A.A.-.h.1.e.e.R | / 8.8.R L M E b K j.J i b ",
"4 4 4 u S H [ [ , @ p ' 9.W D b M / ! | ,.d.8.1.i.,.P.f.~ -.@.e.3.>.5.^ p.2.h.h._ f.@.,.} M / ) y.7.M h g J n Q &.b i D ",
"> * , 6 C G ` ' y < k ..k.U b J M L ! | ( 2.,./ 2.( M.f.) ( | i.3.>.3.^ i.<.p.h.( f.1.<.| M ) ..7.,.J b l D b I $.b p D ",
"2 , 2 6 f G I E 9 ; l } 7.b g l b M L | | 2.2./ ( L f.M.( B _ M.2.>.2.X.i.2.h.A./ i.2.8.1.W / {  .{ b g l v g v &.D p f ",
"u 5 5 u f D D D 8 & g W $.M M L L M / | | <.1.! / L i.f.! N ~ 2._ =.=.~ 2.:.2.i.! @.) | @.W K M W F q - 1 9 9 p ` f u u ",
"G D S D I ' ' ' } Q 6.y.l.,.<.8.8.8.y.8.i.i.f.,.z.h.E.F.e.f.h.:.4.a.a.i.h.a.i.g.i.d.<.,.e.8.,.%.&. .` S ` G G G [ H ` [ ",
"f s s p S G I J { { $.{ { L R ! / | ..! 2.8.d.e.f.8.g.z.p.f.f.-.2.i.i.5.i.:.! ! | @./ W } { E ' G D G S ` S f u f d f A ",
"I G D I ] #.$.$...$.8...| | <.<.i.d.d.,.A.F.E.P.z.-.i.`.E.z.A.D.h.I.A.A.h.2.! R M R Q W Q K b D S v v u D a u 6 7 2 > # ",
"` G D I ]  .} W ..@.,...| / ( | <.8.| | <.2.8.z.d.R 8.F.M.M.h.h.h.Z.P.).A.-.R L N K W b n J w l f a u d f 7 4 5 6 5 4 2 ",
"k f s k I ' ' I { } ..} / ! ! / <.8.<.,.8.8.e.z.f./ i.F.M.M.h.h.2.i.h.A.g.-./ / } }  .L W { n I D k z D S f u d d a 7 6 ",
"y 3 3 u k D D l J K L K M M M L ! } / / | | ( ,.f.| i.A.h.h.f.f.i.i.g.h.8.) L R ) ) / K E I b I G D D G G f d f d u 7 7 ",
"5 3 < 3 q i q 9 i g g g r r r h g M M M L M m M ! t N ! B R N N B B ! ~ R M c N L K n b n l i b D S S D S a u d 7 5 4 4 "
};
